<svg xmlns="http://www.w3.org/2000/svg" xmlns:xlink="http://www.w3.org/1999/xlink" xmlns:lucid="lucid" width="2963" height="1622"><g transform="translate(1041.5 1120.5)" lucid:page-tab-id="0_0"><path d="M-1500-1500h3500v2500h-3500z" fill="#fff"/><path d="M-1040-852a8 8 0 0 1 8-8h2944a8 8 0 0 1 8 8V492a8 8 0 0 1-8 8h-2944a8 8 0 0 1-8-8z" stroke="#242f3e" stroke-width="3" fill="#fff" fill-opacity="0"/><path d="M-1040-860h56v56h-56v-56z" stroke="#fff" stroke-opacity="0" fill="#242f3e"/><path d="M-1021.78-834.13c-.04.48.04.87.17 1.34.1.4.28.7.48 1.07.04.1.08.22.08.34 0 .2-.12.36-.28.46l-.95.62c-.12.1-.25.13-.37.13-.16 0-.33-.06-.45-.2-.2-.22-.36-.43-.52-.7-.17-.25-.3-.53-.46-.86-1.1 1.37-2.62 2.1-4.4 2.06-1.14.06-2.12-.3-2.95-1.08-.78-.8-1.14-1.76-1.1-2.85-.05-1.23.4-2.28 1.35-3.08 1.07-.86 2.3-1.23 3.65-1.16.58 0 1.03.02 1.6.1.58.1 1.12.2 1.73.33v-1.1c.08-.88-.16-1.67-.7-2.37-.74-.56-1.56-.8-2.46-.7-.53 0-1.03.07-1.6.2-.58.13-1.03.3-1.6.5l-.5.2h-.24c-.2 0-.33-.16-.33-.45v-.75c0-.18.04-.33.12-.5.12-.16.24-.26.4-.33.66-.3 1.2-.5 1.9-.67.77-.2 1.47-.3 2.3-.28 1.47-.13 2.78.26 3.9 1.2.94 1.05 1.35 2.28 1.22 3.67zm-6.07 2.28c.57 0 1.06-.1 1.6-.28.57-.2 1.03-.5 1.43-.96.25-.27.42-.56.5-.93.12-.45.16-.84.16-1.3v-.67c-.53-.1-.94-.17-1.43-.2h-1.4c-.8-.08-1.55.12-2.2.58-.54.45-.8 1.04-.75 1.73-.04.62.13 1.16.54 1.6.44.38.97.52 1.55.45zm12 1.6c-.22 0-.42-.03-.6-.15-.15-.17-.23-.36-.32-.6l-3.5-11.5-.1-.62c0-.24.1-.37.36-.37h1.47c.2 0 .37.04.57.15.17.18.25.37.3.6l2.5 9.96 2.38-9.93c0-.24.08-.44.28-.6.17-.12.37-.16.58-.14h1.2c.24-.02.4.02.6.13.17.2.25.37.3.6l2.33 9.95 2.56-10c.04-.2.16-.4.33-.58.15-.1.36-.17.56-.14h1.4c.16 0 .33.12.37.3v.31s0 .2-.12.35l-3.6 11.53c-.05.22-.13.42-.3.6-.2.1-.37.14-.57.13h-1.27c-.25.04-.46-.02-.62-.15-.16-.16-.25-.36-.3-.6l-2.3-9.6-2.28 9.6c-.05.24-.13.43-.3.6-.2.13-.4.2-.6.16zm19.2.38c-.82 0-1.5-.07-2.3-.25-.65-.13-1.14-.3-1.72-.6-.2-.1-.37-.23-.45-.4-.08-.16-.12-.3-.12-.45v-.75c0-.3.12-.46.32-.46h.3l.36.15c.58.24 1.03.4 1.6.5.62.15 1.15.2 1.8.2.8.06 1.5-.1 2.2-.48.48-.32.77-.83.73-1.42.04-.4-.13-.76-.38-1.04-.46-.4-.95-.65-1.52-.8l-2.18-.68c-.95-.25-1.73-.73-2.38-1.5-.5-.65-.74-1.35-.74-2.18 0-.6.12-1.08.4-1.6.3-.5.63-.9 1.08-1.22.5-.38.98-.6 1.6-.78.66-.18 1.2-.26 1.9-.25.32-.03.6-.03.97 0l1 .16.8.23.67.25c.16.1.28.22.45.38.08.15.12.3.12.5v.7c0 .3-.12.47-.37.47-.2-.03-.37-.1-.57-.18-.95-.42-1.8-.6-2.88-.58-.7-.04-1.3.08-1.97.4-.5.3-.74.8-.7 1.36 0 .4.13.76.46 1.05.5.4.98.65 1.6.82l2.1.67c.94.24 1.68.7 2.3 1.43.48.64.7 1.3.7 2.1 0 .63-.13 1.17-.38 1.73-.3.55-.62.95-1.1 1.32-.5.4-1 .66-1.6.84-.75.23-1.4.33-2.15.34zM-993.9-822.5c-5.6 3.8-11.36 5.56-18.15 5.54-8.54.05-15.82-2.74-22.16-8.45-.5-.42 0-1 .48-.68 7.07 4.05 14.02 5.9 22.2 5.9 6.1-.04 11.3-1.1 16.93-3.47.83-.35 1.52.54.7 1.13z" stroke="#fff" stroke-opacity="0" fill="#fff"/><path d="M-991.84-824.8c-.64-.82-4.16-.38-5.75-.2-.46 0-.53-.36-.1-.66 2.8-1.98 7.42-1.4 8-.74.6.67-.14 5.28-2.78 7.5-.4.32-.78.13-.6-.3.54-1.52 1.86-4.83 1.24-5.6z" stroke="#fff" stroke-opacity="0" fill="#fff"/><use xlink:href="#a" transform="matrix(1,0,0,1,-969,-840) translate(0 16.216875)"/><use xlink:href="#b" transform="matrix(1,0,0,1,-969,-840) translate(42.544775390625006 16.216875)"/><path d="M-1000-792a8 8 0 0 1 8-8h2864a8 8 0 0 1 8 8V432a8 8 0 0 1-8 8H-992a8 8 0 0 1-8-8z" stroke="#8c4fff" stroke-width="3" fill="#fff" fill-opacity="0"/><path d="M-1000-800h56v56h-56v-56z" stroke="#000" stroke-opacity="0" fill="#8c4fff"/><path d="M-956.63-770.55l-4.12-1.77v14.68c3.57-.48 4.12-4.16 4.12-4.3v-8.6zm-5.53 12.95v-14.72l-4.23 1.77v8.68c0 .07.63 3.86 4.24 4.27zm.43-16.45c.2-.07.4-.07.55.04l5.53 2.34c.27.1.43.37.43.63v9.16c-.24 2.02-1.88 5.7-6.35 5.7-4.3 0-5.96-3.68-6.24-5.6v-9.26c0-.26.2-.52.43-.63l5.64-2.4zm7.92.92l-7.66-3.38-7.76 3.26v9.97c0 .07-.04 4 2.36 6.48 1.25 1.33 3.05 2 5.3 2 2.26 0 4.02-.67 5.36-2 2.43-2.46 2.4-6.43 2.4-6.47v-9.86zm-1.42 17.3c-1.57 1.6-3.7 2.42-6.35 2.42-2.63 0-4.75-.82-6.3-2.44-2.84-2.87-2.72-7.28-2.72-7.46v-10.42c0-.3.17-.55.44-.62l8.43-3.57c.2-.1.4-.1.55 0l8.35 3.67c.27.1.43.37.43.62v10.33c0 .2.04 4.56-2.82 7.43zm-29.4-10.23h11.2v1.4h-11.2c-3.92 0-6.75-2.84-6.98-7.03v-.5c0-3.54 1.84-5.93 5.33-7 0-.3-.04-.66-.04-.88 0-4.1 2.23-7.65 5.64-9.05 4.62-1.88 9.84-1.25 12.74 1.54 1.05 1.04 1.88 2.18 2.47 3.5.86-.62 1.96-.9 3.3-.84 2.5.1 4.42 2.4 4.8 5.6 2.1.18 3.5 1.25 4.2 3.23l-1.3.47c-.58-1.62-1.67-2.36-3.56-2.36-.36 0-.67-.24-.67-.65-.2-3.24-2-4.82-3.57-4.9-1.33-.06-2.3.3-2.9 1.1-.16.2-.4.3-.67.27-.24-.04-.48-.22-.56-.44-.58-1.55-1.4-2.83-2.54-3.94-2.5-2.43-7.14-2.94-11.25-1.25-2.87 1.17-4.75 4.2-4.75 7.72 0 .37.04.95.08 1.32.04.37-.15.7-.5.77-3.22.82-4.87 2.74-4.87 5.8v.4c.2 3.5 2.4 5.74 5.58 5.74z" stroke="#000" stroke-opacity="0" fill="#fff"/><use xlink:href="#c" transform="matrix(1,0,0,1,-929,-780) translate(0 16.216875)"/><use xlink:href="#d" transform="matrix(1,0,0,1,-929,-780) translate(55.70463867187501 16.216875)"/><use xlink:href="#e" transform="matrix(1,0,0,1,-929,-780) translate(115.07932617187501 16.216875)"/><use xlink:href="#f" transform="matrix(1,0,0,1,-929,-780) translate(163.59099609375002 16.216875)"/><path d="M-880 28a8 8 0 0 1 8-8h2564a8 8 0 0 1 8 8v384a8 8 0 0 1-8 8H-872a8 8 0 0 1-8-8z" fill="#fff" fill-opacity="0"/><path d="M-854.03 20h11.98m11.98 0h12m11.97 0h11.98m11.98 0h11.98m11.98 0h11.98m12 0h11.97m11.98 0h11.98m11.98 0h12m11.97 0h11.98m12 0h11.97m11.98 0h11.98m11.98 0h11.98m11.98 0h12m11.97 0h11.97m11.98 0h11.98m11.98 0h12m11.97 0h12m11.97 0h11.98m11.98 0h11.98m11.98 0h11.98m11.98 0h12m11.97 0h11.97m11.98 0h11.98m11.98 0h12m11.97 0h12m11.97 0h11.98m11.98 0h11.98m11.98 0h11.98m12 0h11.97m12 0h11.97m11.98 0h11.98m11.98 0h12m11.98 0h11.98m11.98 0h11.98m11.98 0h11.98m11.98 0h11.98m12 0H20.6m12 0h11.97m11.98 0h11.98m11.98 0h12m11.98 0h11.98m11.98 0h11.98m11.98 0h11.98m11.98 0h12m11.97 0h11.98m12 0h11.97m11.98 0h11.98m11.98 0h12m11.98 0h11.98m11.98 0h11.98m11.98 0h11.98m12 0h11.97m11.98 0H404m12 0h11.97m11.98 0h12m11.97 0h11.98m11.98 0h11.98m11.98 0h11.98m11.98 0h12m11.97 0h11.98m11.98 0h11.98m12 0h11.97m11.98 0h12m11.97 0h11.98m11.98 0h11.98m11.98 0h11.98m12 0h11.97m11.97 0h11.98m11.98 0h11.98m12 0h11.97m12 0h11.97m11.98 0h11.98m11.98 0h11.98m11.98 0h11.98m12 0h11.97m11.97 0h11.98m11.98 0h11.98m12 0h11.98m11.98 0h11.98m11.98 0H1051m11.98 0h11.98m11.98 0h11.98m12 0h11.97m11.97 0h11.98m11.98 0h11.98m12 0h11.98m11.98 0h11.98m11.98 0h11.98m11.98 0h11.98m11.98 0h12m11.97 0h12m11.97 0h11.98m11.98 0h11.98m12 0h11.98m11.98 0h11.98m11.98 0h11.98m11.98 0h11.98m12 0h11.97m11.98 0h12m11.97 0h11.98m11.98 0h11.98m12 0h11.98m11.98 0h11.98m11.98 0h11.98m11.98 0h12m11.97 0h11.98m11.98 0h6a8 8 0 0 1 8 8v6m0 12v12m0 12v12m0 12v12m0 12v12m0 12v12m0 12v12m0 12v12m0 12v12m0 12v12m0 12v12m0 12v12m0 12v12m0 12v12m0 12v12m0 12v12m0 12v6a8 8 0 0 1-8 8h-6m-11.97 0h-11.98m-11.98 0h-12m-11.97 0h-11.98m-11.98 0h-11.98m-11.98 0h-11.98m-12 0h-11.97m-11.98 0h-11.98m-11.98 0h-12m-11.97 0h-11.98m-12 0h-11.97m-11.98 0h-11.98m-11.98 0h-11.98m-11.98 0h-12m-11.97 0h-11.97m-11.98 0h-11.98m-11.98 0h-12m-11.97 0h-12m-11.97 0h-11.98m-11.98 0h-11.98m-11.98 0h-11.98m-11.98 0h-12m-11.97 0h-11.97m-11.98 0h-11.98m-11.98 0h-12m-11.98 0h-11.98m-11.98 0h-11.98m-11.98 0h-11.98m-11.98 0h-11.98m-11.98 0h-12m-11.97 0h-11.97m-11.98 0h-11.98m-11.98 0h-12m-11.98 0h-11.98m-11.98 0h-11.98m-11.98 0h-11.98m-11.98 0h-12m-11.97 0H799.4m-12 0h-11.97m-11.98 0h-11.98m-11.98 0h-12m-11.98 0h-11.98m-11.98 0h-11.98m-11.98 0h-11.98m-11.98 0h-12m-11.97 0H607.7m-12 0h-11.97m-11.98 0h-11.98m-12 0H535.8m-11.98 0h-11.98m-11.98 0h-11.98m-11.98 0h-11.98m-12 0h-11.97m-11.98 0H416m-12 0h-11.97m-11.98 0h-12m-11.97 0H344.1m-11.98 0h-11.98m-11.98 0h-11.98m-11.98 0h-12m-11.97 0h-11.98m-11.98 0H224.3m-12 0h-11.97m-11.98 0h-12m-11.97 0H152.4m-11.98 0h-11.98m-11.98 0h-11.98m-11.98 0h-12m-11.97 0H56.55m-11.98 0H32.6m-12 0H8.64m-12 0h-11.97m-11.98 0H-39.3m-11.98 0h-11.98m-11.98 0h-11.98m-12 0h-11.97m-11.97 0h-11.98m-11.98 0h-11.98m-12 0h-11.97m-12 0h-11.97m-11.98 0H-231m-11.98 0h-11.98m-11.98 0h-12m-11.97 0h-12m-11.97 0h-11.98m-11.98 0h-11.98m-12 0h-11.98m-11.98 0h-11.98m-11.98 0h-11.98m-11.98 0h-11.98m-11.98 0h-12m-11.97 0h-12m-11.97 0h-11.98m-11.98 0h-11.98m-12 0h-11.98m-11.98 0h-11.98m-11.98 0h-11.98m-11.98 0h-11.98m-12 0h-11.97m-11.98 0h-12m-11.97 0h-11.98m-11.98 0h-12m-11.97 0h-11.98m-11.98 0h-11.98m-11.98 0h-11.98m-11.98 0h-12m-11.97 0h-11.98m-11.98 0h-6a8 8 0 0 1-8-8v-6m0-12v-12m0-12v-12m0-12v-12m0-12v-12m0-12v-12m0-12v-12m0-12v-12m0-12v-12m0-12v-12m0-12v-12m0-12v-12m0-12v-12m0-12V94m0-12V70m0-12V46m0-12v-6a8 8 0 0 1 8-8h6" stroke="#00a4a6" stroke-width="3" fill="none"/><use xlink:href="#g" transform="matrix(1,0,0,1,-880,40) translate(1212.1201171875 17.4375)"/><use xlink:href="#h" transform="matrix(1,0,0,1,-880,40) translate(1307.7978515625 17.4375)"/><use xlink:href="#i" transform="matrix(1,0,0,1,-880,40) translate(1356.1025390625 17.4375)"/><path d="M-800-612a8 8 0 0 1 8-8h2444a8 8 0 0 1 8 8v431.66a8 8 0 0 1-8 8H-792a8 8 0 0 1-8-8z" fill="#fff" fill-opacity="0"/><path d="M-774.03-620h11.98m11.98 0h11.98m12 0h11.97m11.98 0h11.98m11.98 0h12m11.98 0h11.98m11.98 0h11.98m11.98 0h11.98m11.98 0h11.98m11.98 0h11.98m11.98 0h11.98m11.98 0h11.98m11.98 0h11.98m11.98 0h11.98m11.98 0h11.98m11.98 0h11.98m11.98 0h11.98m11.98 0h11.98m12 0h11.97m11.98 0h11.98m12 0h11.97m11.98 0h11.98m11.98 0h12m11.97 0h11.98m11.98 0H-187m12 0h11.97m11.98 0h11.98m11.98 0h12m11.97 0h11.98m11.98 0h11.98m12 0h11.98m11.97 0h11.98m12 0H4.7m11.98 0h11.98m11.98 0h11.98m11.98 0h11.98m11.98 0h11.98m11.98 0h11.98m11.98 0h11.98m11.98 0h11.98m11.98 0h11.98m11.98 0h11.98m11.98 0h11.98m11.98 0h12m11.97 0h11.98m11.98 0h12m11.97 0h11.98m11.98 0h11.98m12 0h11.97m11.98 0h11.98m11.98 0h12m11.97 0h11.98m11.98 0h11.98m12 0h11.97m11.98 0h11.98m11.98 0h12m11.98 0h11.98m11.98 0h11.98m11.98 0h11.98m11.98 0h11.98m11.98 0h11.98m11.98 0h11.98m11.98 0h11.98m11.98 0h11.98m11.98 0h11.98m11.98 0h11.98m11.98 0h11.98m11.98 0h11.98m11.98 0h11.98m12 0h11.97m11.98 0h11.98m12 0h11.97m11.98 0h11.98m11.98 0h12m11.97 0h11.98m11.98 0H1035m12 0h11.97m11.98 0h11.98m11.98 0h12m11.97 0h11.98m11.98 0h11.98m12 0h11.98m11.98 0h11.97m12 0h11.97m11.98 0h11.98m11.98 0h11.98m11.98 0h11.98m11.98 0h11.98m11.98 0h11.98m11.98 0h11.98m11.98 0h11.98m11.98 0h11.98m11.98 0h11.98m11.98 0h11.98m11.98 0h12m11.96 0h11.98m12 0h11.97m11.97 0h11.98m11.98 0h11.98m12 0h11.97m11.98 0h11.98m11.98 0h6a8 8 0 0 1 8 8v6m0 12v11.98m0 12v11.98m0 12v11.98m0 12v11.98m0 12v11.98m0 12v11.98m0 12v11.98m0 12v12m0 11.98v12m0 11.98v12m0 11.98v12m0 11.98v12m0 11.98v12m0 11.98v12m0 11.98v12m0 12v11.98m0 12v11.98m0 12v5.98a8 8 0 0 1-8 8h-6m-11.97 0h-11.98m-11.98 0h-11.98m-12 0h-11.97m-11.98 0h-11.98m-11.98 0h-12m-11.98 0h-11.98m-11.97 0h-12m-11.97 0h-11.98m-11.98 0h-11.98m-11.98 0h-11.98m-11.98 0h-11.98m-11.98 0h-11.98m-11.98 0h-11.98m-11.98 0h-11.98m-11.98 0h-11.98m-11.98 0h-11.98m-11.98 0h-11.98m-11.98 0h-11.98m-12 0h-11.96m-11.98 0h-12m-11.97 0h-11.97m-11.98 0h-11.98m-11.98 0h-12m-11.97 0h-11.98m-11.98 0H1047m-12 0h-11.97m-11.98 0h-11.98m-11.98 0h-12m-11.97 0h-11.98m-11.98 0H927.2m-12 0h-11.98m-11.98 0h-11.98m-11.98 0H855.3m-11.98 0h-11.98m-11.98 0h-11.98m-11.98 0h-11.98m-11.98 0h-11.98m-11.98 0H735.5m-11.98 0h-11.98m-11.98 0h-11.98m-11.98 0h-11.98m-11.98 0h-11.98m-11.98 0H615.7m-11.98 0h-12m-11.97 0h-11.98m-11.98 0h-12m-11.97 0h-11.98m-11.98 0H495.9m-12 0h-11.97m-11.98 0h-11.98m-11.98 0h-12m-11.97 0h-11.98m-11.98 0H376.1m-12 0h-11.97m-11.98 0h-11.98m-11.98 0h-12m-11.97 0h-12m-11.97 0h-11.98m-11.98 0h-11.98m-11.98 0h-11.98m-11.98 0H184.4m-11.98 0h-11.98m-11.98 0h-11.98m-11.98 0h-11.98m-11.98 0H88.56m-11.98 0H64.6m-11.98 0H40.64m-11.98 0H16.68m-11.98 0H-7.28m-11.98 0h-11.98m-12 0H-55.2m-12 0h-11.97m-11.98 0h-11.98m-11.98 0h-12m-11.97 0h-11.98m-11.98 0H-175m-12 0h-11.97m-11.98 0h-11.98m-11.98 0h-12m-11.97 0h-11.98m-11.98 0h-11.98m-12 0h-11.97m-12 0h-11.97m-11.98 0h-11.98m-11.98 0h-11.98m-11.98 0h-11.98m-11.98 0h-11.98m-11.98 0h-11.98m-11.98 0h-11.98m-11.98 0h-11.98m-11.98 0h-11.98m-11.98 0h-11.98m-11.98 0h-11.98m-11.98 0h-11.98m-11.98 0h-12m-11.97 0h-11.98m-11.98 0h-12m-11.97 0h-11.98m-11.98 0h-11.98m-12 0h-11.97m-11.98 0h-11.98m-11.98 0h-6a8 8 0 0 1-8-8v-6m0-11.98v-12m0-11.98v-12m0-11.98v-12m0-12v-11.98m0-12v-11.98m0-12v-11.98m0-12v-11.98m0-12v-11.98m0-12v-11.98m0-12v-11.98m0-12v-12m0-11.98v-12m0-11.98v-12m0-11.98v-12m0-11.98v-12m0-11.98v-12m0-11.98v-12m0-12V-612a8 8 0 0 1 8-8h6" stroke="#00a4a6" stroke-width="3" fill="none"/><use xlink:href="#g" transform="matrix(1,0,0,1,-800,-600) translate(1151.79931640625 17.4375)"/><use xlink:href="#h" transform="matrix(1,0,0,1,-800,-600) translate(1247.47705078125 17.4375)"/><use xlink:href="#j" transform="matrix(1,0,0,1,-800,-600) translate(1295.78173828125 17.4375)"/><path d="M720 52.45a8 8 0 0 1 8-8h884a8 8 0 0 1 8 8V362a8 8 0 0 1-8 8H728a8 8 0 0 1-8-8z" stroke="#00a4a6" stroke-width="3" fill="#fff" fill-opacity="0"/><path d="M720 44.45h56v56h-56v-56z" stroke="#fff" stroke-opacity="0" fill="#00a4a6"/><path d="M763.38 66.62c-.15-.16-.34-.25-.56-.25h-5.15V60.8c-.03-2.54-.96-4.7-2.84-6.4-1.9-1.84-4.15-2.75-6.77-2.75-2.65 0-4.9.83-6.8 2.62-1.9 1.7-2.87 3.87-2.9 6.4v5.66h-5.15c-.24 0-.43.1-.58.25-.16.17-.22.34-.22.6v25.28c0 .4.34.8.8.8h29.6c.46 0 .8-.4.8-.8v-25.3c0-.2-.06-.37-.22-.54zm-23.46-5.9c.03-2.13.8-3.87 2.37-5.3 1.6-1.48 3.52-2.2 5.73-2.2 2.22 0 4.12.76 5.7 2.26 1.54 1.4 2.32 3.2 2.32 5.32v5.57H739.9zm22.1 30.95h-28.03V67.95h28z" stroke="#fff" stroke-opacity="0" fill="#fff"/><path d="M747.2 81.76V88h1.6v-6.23c2.13-.4 3.62-2.2 3.63-4.35 0-2.43-1.97-4.4-4.4-4.43-2.2-.04-4.06 1.5-4.44 3.67-.42 2.4 1.2 4.68 3.6 5.1zm.82-7.16c.78 0 1.44.27 2 .82.54.56.82 1.22.8 2 .03 1.55-1.2 2.8-2.74 2.82h-.06c-1.56.12-2.92-1.05-3.04-2.6-.12-1.57 1.05-2.94 2.6-3.04.16-.02.28-.02.44 0z" stroke="#fff" stroke-opacity="0" fill="#fff"/><use xlink:href="#k" transform="matrix(1,0,0,1,791,64.44815409467964) translate(0 17.4375)"/><use xlink:href="#l" transform="matrix(1,0,0,1,791,64.44815409467964) translate(64.318359375 17.4375)"/><use xlink:href="#m" transform="matrix(1,0,0,1,791,64.44815409467964) translate(127.564453125 17.4375)"/><path d="M727.34-575.2a8 8 0 0 1 8-8H1612a8 8 0 0 1 8 8V-188a8 8 0 0 1-8 8H735.34a8 8 0 0 1-8-8z" stroke="#00a4a6" stroke-width="3" fill="#fff" fill-opacity="0"/><path d="M727.34-583.2h56v56h-56v-56z" stroke="#fff" stroke-opacity="0" fill="#00a4a6"/><path d="M770.73-561c-.16-.18-.35-.26-.57-.26h-5.14v-5.58c-.03-2.53-.97-4.7-2.84-6.4-1.9-1.84-4.15-2.75-6.77-2.75-2.64 0-4.9.84-6.8 2.63-1.9 1.7-2.87 3.87-2.9 6.4v5.67h-5.15c-.24 0-.43.08-.6.25-.14.16-.2.33-.2.58v25.3c0 .4.34.78.8.78h29.58c.47 0 .8-.36.8-.78v-25.3c0-.2-.05-.37-.2-.53zm-23.47-5.92c.03-2.12.82-3.87 2.38-5.28 1.62-1.5 3.52-2.2 5.74-2.2 2.2 0 4.1.74 5.7 2.24 1.53 1.4 2.3 3.2 2.3 5.32v5.58h-16.15zm22.1 30.95h-28.02v-23.7h28z" stroke="#fff" stroke-opacity="0" fill="#fff"/><path d="M754.54-545.88v6.24h1.6v-6.23c2.13-.4 3.63-2.2 3.64-4.35 0-2.43-1.98-4.4-4.42-4.43-2.2-.03-4.05 1.5-4.43 3.68-.4 2.4 1.2 4.68 3.6 5.1zm.82-7.16c.78 0 1.44.27 2 .82.55.56.82 1.22.8 2 .03 1.55-1.2 2.8-2.74 2.82h-.06c-1.56.12-2.92-1.05-3.04-2.6-.1-1.57 1.05-2.93 2.6-3.04h.44z" stroke="#fff" stroke-opacity="0" fill="#fff"/><use xlink:href="#k" transform="matrix(1,0,0,1,798.344022114972,-563.1896136545201) translate(0 17.4375)"/><use xlink:href="#l" transform="matrix(1,0,0,1,798.344022114972,-563.1896136545201) translate(64.318359375 17.4375)"/><use xlink:href="#n" transform="matrix(1,0,0,1,798.344022114972,-563.1896136545201) translate(127.564453125 17.4375)"/><path d="M800 106a6 6 0 0 1 6-6h768a6 6 0 0 1 6 6v230.06a6 6 0 0 1-6 6H806a6 6 0 0 1-6-6z" stroke="#ed7100" stroke-width="3" fill="#fff" fill-opacity="0"/><path d="M800 100h56v56h-56v-56z" stroke="#fff" stroke-opacity="0" fill="#ed7100"/><path d="M847.2 118.75v-1.58h-3.76v-4.6h-4.8v-3.77h-1.62v3.76h-3.4v-3.76h-1.63v3.76h-3.4v-3.76H827v3.76h-3.42v-3.76h-1.6v3.76h-3.43v-3.76h-1.57v3.76h-4.42v4.57h-3.76v1.62h3.76v3.4h-3.76v1.63h3.76v3.4h-3.76v1.63h3.76v3.42h-3.76v1.62h3.76v3.4h-3.76v1.63h3.76v4.57h4.42v3.76h1.57v-3.76h3.42v3.76h1.6v-3.76H827v3.76h1.6v-3.76h3.4v3.76h1.6v-3.76h3.42v3.76h1.62v-3.76h4.8v-4.57h3.76v-1.62h-3.76v-3.4h3.76v-1.63h-3.76v-3.4h3.76v-1.63h-3.76v-3.42h3.76v-1.62h-3.76v-3.4zm-5.38 23.07h-27.64v-27.64h27.64z" stroke="#fff" stroke-opacity="0" fill="#fff"/><use xlink:href="#o" transform="matrix(1,0,0,1,871,120) translate(0 21.52777777777778)"/><use xlink:href="#p" transform="matrix(1,0,0,1,871,120) translate(49.392361111111114 21.52777777777778)"/><use xlink:href="#q" transform="matrix(1,0,0,1,871,120) translate(131.13064236111114 21.52777777777778)"/><path d="M780-514a6 6 0 0 1 6-6h788a6 6 0 0 1 6 6v288a6 6 0 0 1-6 6H786a6 6 0 0 1-6-6z" stroke="#ed7100" stroke-width="3" fill="#fff" fill-opacity="0"/><path d="M780-520h56v56h-56v-56z" stroke="#fff" stroke-opacity="0" fill="#ed7100"/><path d="M827.2-501.25v-1.58h-3.76v-4.6h-4.8v-3.77h-1.62v3.76h-3.4v-3.76h-1.63v3.76h-3.4v-3.76H807v3.76h-3.42v-3.76h-1.6v3.76h-3.43v-3.76h-1.57v3.76h-4.42v4.57h-3.76v1.62h3.76v3.4h-3.76v1.63h3.76v3.4h-3.76v1.63h3.76v3.42h-3.76v1.62h3.76v3.4h-3.76v1.63h3.76v4.57h4.42v3.76h1.57v-3.76h3.42v3.76h1.6v-3.76H807v3.76h1.6v-3.76h3.4v3.76h1.6v-3.76h3.42v3.76h1.62v-3.76h4.8v-4.57h3.76v-1.62h-3.76v-3.4h3.76v-1.63h-3.76v-3.4h3.76v-1.63h-3.76v-3.42h3.76v-1.62h-3.76v-3.4zm-5.38 23.07h-27.64v-27.64h27.64z" stroke="#fff" stroke-opacity="0" fill="#fff"/><use xlink:href="#o" transform="matrix(1,0,0,1,851,-500) translate(0 21.52777777777778)"/><use xlink:href="#p" transform="matrix(1,0,0,1,851,-500) translate(49.392361111111114 21.52777777777778)"/><use xlink:href="#q" transform="matrix(1,0,0,1,851,-500) translate(131.13064236111114 21.52777777777778)"/><path d="M440-1009.5V-905a10 10 0 0 1-10 10 10 10 0 0 0-10 10v88.62" stroke="#666" fill="none"/><path d="M440.48-1009.5h-.96v-.5h.96z" stroke="#666" stroke-width=".05" fill="#666"/><path d="M420-781.62l-4.63-14.26h9.26z" stroke="#666" fill="#666"/><path d="M-700 52.45a8 8 0 0 1 8-8h623.75a8 8 0 0 1 8 8v255.1a8 8 0 0 1-8 8H-692a8 8 0 0 1-8-8z" stroke="#7aa116" stroke-width="3" fill="#fff" fill-opacity="0"/><path d="M-700 44.45h56v56h-56v-56z" stroke="#fff" stroke-opacity="0" fill="#7aa116"/><path d="M-656.62 66.62c-.15-.16-.34-.25-.56-.25h-5.15V60.8c-.03-2.54-.96-4.7-2.84-6.4-1.9-1.84-4.15-2.75-6.77-2.75-2.65 0-4.9.83-6.8 2.62-1.9 1.7-2.87 3.87-2.9 6.4v5.66h-5.15c-.24 0-.43.1-.58.25-.16.17-.22.34-.22.6v25.28c0 .4.34.8.8.8h29.6c.46 0 .8-.4.8-.8v-25.3c0-.2-.06-.37-.22-.54zm-23.46-5.9c.03-2.13.8-3.87 2.37-5.3 1.6-1.48 3.52-2.2 5.73-2.2 2.22 0 4.12.76 5.7 2.26 1.54 1.4 2.32 3.2 2.32 5.32v5.57h-16.16zm22.1 30.95h-28.03V67.95h28z" stroke="#fff" stroke-opacity="0" fill="#fff"/><path d="M-672.8 81.76V88h1.6v-6.23c2.13-.4 3.62-2.2 3.63-4.35 0-2.43-1.97-4.4-4.4-4.43-2.2-.04-4.06 1.5-4.44 3.67-.42 2.4 1.2 4.68 3.6 5.1zm.82-7.16c.78 0 1.44.27 2 .82.54.56.82 1.22.8 2 .03 1.55-1.2 2.8-2.74 2.82h-.06c-1.56.12-2.92-1.05-3.04-2.6-.12-1.57 1.05-2.94 2.6-3.04.16-.02.28-.02.44 0z" stroke="#fff" stroke-opacity="0" fill="#fff"/><use xlink:href="#r" transform="matrix(1,0,0,1,-629,64.44815409467964) translate(0 16.216875)"/><use xlink:href="#s" transform="matrix(1,0,0,1,-629,64.44815409467964) translate(53.21979492187501 16.216875)"/><use xlink:href="#t" transform="matrix(1,0,0,1,-629,64.44815409467964) translate(112.03866210937501 16.216875)"/><path d="M-680-486.9a8 8 0 0 1 8-8h623.75a8 8 0 0 1 8 8v284.12a8 8 0 0 1-8 8H-672a8 8 0 0 1-8-8z" stroke="#7aa116" stroke-width="3" fill="#fff" fill-opacity="0"/><path d="M-680-494.9h56v56h-56v-56z" stroke="#fff" stroke-opacity="0" fill="#7aa116"/><path d="M-636.62-472.73c-.15-.16-.34-.25-.56-.25h-5.15v-5.57c-.03-2.54-.96-4.7-2.84-6.4-1.9-1.84-4.15-2.75-6.77-2.75-2.65 0-4.9.83-6.8 2.62-1.9 1.7-2.87 3.87-2.9 6.4v5.66h-5.15c-.24 0-.43.1-.58.25-.16.17-.22.34-.22.6v25.28c0 .42.34.8.8.8h29.6c.46 0 .8-.38.8-.8v-25.28c0-.2-.06-.38-.22-.55zm-23.46-5.9c.03-2.12.8-3.87 2.37-5.3 1.6-1.48 3.52-2.2 5.73-2.2 2.22 0 4.12.76 5.7 2.26 1.54 1.4 2.32 3.2 2.32 5.32v5.57h-16.16zm22.1 30.95h-28.03v-23.7h28z" stroke="#fff" stroke-opacity="0" fill="#fff"/><path d="M-652.8-457.6v6.25h1.6v-6.23c2.13-.4 3.62-2.2 3.63-4.35 0-2.43-1.97-4.4-4.4-4.43-2.2-.03-4.06 1.5-4.44 3.68-.42 2.4 1.2 4.68 3.6 5.1zm.82-7.15c.78 0 1.44.27 2 .82.54.56.82 1.22.8 2 .03 1.55-1.2 2.8-2.74 2.82h-.06c-1.56.1-2.92-1.06-3.04-2.62-.12-1.56 1.05-2.93 2.6-3.03.16-.02.28-.02.44 0z" stroke="#fff" stroke-opacity="0" fill="#fff"/><use xlink:href="#r" transform="matrix(1,0,0,1,-609,-474.9008895214164) translate(0 16.216875)"/><use xlink:href="#s" transform="matrix(1,0,0,1,-609,-474.9008895214164) translate(53.21979492187501 16.216875)"/><use xlink:href="#u" transform="matrix(1,0,0,1,-609,-474.9008895214164) translate(112.03866210937501 16.216875)"/><path d="M415.86-1062.55h-28.5c-1.32 0-2.36-1.05-2.36-2.34v-3.48c0-13.04 8.57-23.98 21.3-27.04.58-.13 1.12-.07 1.67.23 3.74 2.02 7.8 2.02 11.55 0 .54-.3 1.08-.36 1.67-.22 3.32.82 6.08 2 8.92 3.92l-2.62 3.88c-2.12-1.38-4.1-2.3-6.58-2.96-4.74 2.17-9.62 2.17-14.35 0-10.15 2.83-16.88 11.7-16.88 22.2v1.16h26.16z" stroke="#fff" stroke-opacity="0" fill="#232f3e"/><path d="M413.7-1089.1c-8.48 0-15.35-6.88-15.35-15.34s6.87-15.33 15.35-15.33c8.5-.1 15.4 6.72 15.5 15.15.05 5.85-2.9 10.85-8.06 13.6-2.38 1.33-4.7 1.9-7.44 1.9zm0-26c-5.92 0-10.76 4.74-10.8 10.66 0 4.02 2.05 7.45 5.6 9.35 3.36 1.82 7.06 1.82 10.42 0 3.57-1.92 5.64-5.42 5.58-9.5-.06-5.85-4.9-10.54-10.8-10.48zM492.7-1062.55h-28.53v-4.67h26.17v-1.15c0-10.54-6.73-19.4-16.86-22.23-4.75 2.2-9.63 2.2-14.38 0-2.5.7-4.52 1.65-6.65 3.13l-2.66-3.85c2.84-1.98 5.6-3.23 8.94-4.08.6-.13 1.18-.07 1.72.23 3.7 2 7.82 2 11.57 0 .54-.3 1.1-.37 1.68-.23 12.7 3.06 21.3 14 21.3 27.03v3.5c0 1.27-1.04 2.3-2.3 2.32z" stroke="#fff" stroke-opacity="0" fill="#232f3e"/><path d="M466.24-1089.1c-8.55 0-15.45-6.96-15.45-15.5 0-8.5 6.96-15.4 15.5-15.4s15.45 6.95 15.45 15.47c0 5.8-2.94 10.75-8.05 13.53-2.42 1.3-4.74 1.9-7.46 1.9zm0-26c-5.9-.02-10.74 4.74-10.77 10.67-.03 4 2 7.44 5.57 9.33 3.34 1.82 7.06 1.82 10.43 0 3.62-1.92 5.7-5.44 5.63-9.55-.12-5.87-4.98-10.56-10.86-10.44zM477.38-1010h-74.86c-1.27 0-2.3-1.03-2.3-2.33v-4.96c-.08-17.98 11.84-33.1 29.32-37.36.64-.18 1.2-.1 1.75.18 5.55 3 11.67 3 17.3 0 .5-.27 1.05-.36 1.68-.18 17.57 4.2 29.5 19.33 29.4 37.37v4.97c0 1.3-1.03 2.33-2.3 2.33zm-72.47-4.65H475v-2.64c0-15.48-10-28.5-25.03-32.53-6.6 3.18-13.5 3.18-20.1 0-15.03 4.03-24.96 17.05-24.96 32.54z" stroke="#fff" stroke-opacity="0" fill="#232f3e"/><path d="M440.03-1047.62c-3.7 0-6.87-.8-10.16-2.56-10.2-5.6-13.95-18.34-8.4-28.56 5.62-10.18 18.4-13.92 28.63-8.37 10.2 5.6 13.96 18.33 8.4 28.55-2.03 3.7-4.7 6.35-8.4 8.37-3.24 1.76-6.4 2.56-10.07 2.56zm0-36.8c-6.1-.08-11.38 3-14.33 8.37-4.22 7.78-1.35 17.54 6.45 21.8 5.06 2.68 10.62 2.68 15.68 0 5.44-2.95 8.56-8.2 8.47-14.35-.13-8.83-7.42-15.94-16.27-15.82z" stroke="#fff" stroke-opacity="0" fill="#232f3e"/><path d="M493.32-1062.55H438.7c-.93 0-1.68-.75-1.68-1.7v-3.62c-.06-13.12 8.64-24.16 21.4-27.26.46-.13.87-.06 1.27.13 4.05 2.2 8.5 2.2 12.63 0 .35-.2.75-.26 1.22-.13 12.8 3.07 21.5 14.1 21.45 27.26v3.63c0 .94-.75 1.7-1.68 1.7zm-52.88-3.4h51.14v-1.92c0-11.3-7.3-20.8-18.26-23.73-4.82 2.3-9.86 2.3-14.67 0-10.96 2.93-18.2 12.43-18.2 23.73z" stroke="#fff" stroke-opacity="0" stroke-width=".73" fill="#fff" fill-opacity="0"/><path d="M441.3-1062.55h-54.62c-.93 0-1.68-.75-1.68-1.7v-3.62c-.06-13.12 8.64-24.16 21.4-27.26.46-.13.86-.06 1.27.13 4.06 2.2 8.52 2.2 12.64 0 .36-.2.76-.26 1.23-.13 12.8 3.07 21.5 14.1 21.45 27.26v3.63c0 .94-.75 1.7-1.68 1.7zm-52.88-3.4h51.14v-1.92c0-11.3-7.3-20.8-18.26-23.73-4.82 2.3-9.86 2.3-14.67 0-10.96 2.93-18.2 12.43-18.2 23.73z" stroke="#fff" stroke-opacity="0" stroke-width=".73" fill="#fff" fill-opacity="0"/><path d="M446.4-691.68v-6.48h6.48v6.48h-6.48zm-18.84 0v-6.48h6.36v6.48h-6.36zm-21.48 0v-6.48h6.48v6.48h-6.48zm-18.96 0v-6.48h6.24v6.48h-6.24zm16.56-47.76v-15.96h32.64v15.96h-32.64zm51.84 35.76h-4.2v-9.12c0-1.56-1.2-2.76-2.64-2.76h-6.84v-9.24c0-1.44-1.2-2.64-2.76-2.64h-16.32v-6.48h16.32c1.56 0 2.76-1.32 2.76-2.76v-21.48c0-1.56-1.2-2.76-2.76-2.76h-38.16c-1.56 0-2.76 1.2-2.76 2.76v21.48c0 1.44 1.2 2.76 2.76 2.76h16.32v6.48h-16.32c-1.56 0-2.76 1.2-2.76 2.64v9.24h-6.84c-1.44 0-2.64 1.2-2.64 2.76v9.12h-4.2c-1.56 0-2.76 1.32-2.76 2.76v12c0 1.44 1.2 2.64 2.76 2.64h11.64c1.56 0 2.76-1.2 2.76-2.64v-12c0-1.44-1.2-2.76-2.76-2.76h-2.04v-6.48h11.28v6.48h-2.04c-1.56 0-2.76 1.32-2.76 2.76v12c0 1.44 1.2 2.64 2.76 2.64h11.88c1.56 0 2.76-1.2 2.76-2.64v-12c0-1.44-1.2-2.76-2.76-2.76h-4.44v-9.12c0-1.56-1.2-2.76-2.64-2.76h-4.44v-6.48h32.64v6.48h-4.44c-1.44 0-2.64 1.2-2.64 2.76v9.12h-4.44c-1.56 0-2.76 1.32-2.76 2.76v12c0 1.44 1.2 2.64 2.76 2.64h11.88c1.56 0 2.76-1.2 2.76-2.64v-12c0-1.44-1.2-2.76-2.76-2.76h-2.04v-6.48h11.28v6.48h-2.28c-1.44 0-2.64 1.32-2.64 2.76v12c0 1.44 1.2 2.64 2.64 2.64h11.88c1.56 0 2.76-1.2 2.76-2.64v-12c0-1.44-1.2-2.76-2.76-2.76zM420-665.4c-30.12 0-54.6-24.48-54.6-54.6s24.48-54.6 54.6-54.6 54.6 24.48 54.6 54.6-24.48 54.6-54.6 54.6zm0-114.6c-33.12 0-60 26.88-60 60 0 33.12 26.88 60 60 60 33.12 0 60-26.88 60-60 0-33.12-26.88-60-60-60z" stroke="#000" stroke-opacity="0" fill="#8c4fff"/><path d="M1780-780h87.38v87.38H1780V-780z" stroke="#000" stroke-opacity="0" fill="#ed7100"/><path d="M1846.88-712.95l-23.5-.06c-2.8 0-5.24-2.1-5.55-4.78v-.73c0-3.68 2.56-4.9 4.08-5.34.5-.12.93-.54.93-1.1 0 0-.06-.06-.06-.12 0-.3-.07-.67-.07-.98 0-3.06 2.14-6.3 4.82-7.46 4.62-1.96 7.9.6 9.13 1.84.97.98 1.7 2.26 2.25 3.73.13.36.5.67.86.73.42.06.8-.12 1.03-.43.72-.9 1.82-1.34 2.85-1.04 1.28.37 2.14 1.72 2.32 3.55-.06.55.3 1.1.9 1.16 1.47.25 4.95 1.35 4.95 5.5 0 4.9-4.5 5.45-4.94 5.5zm-26 4.9l-25.58-13.64V-751l21.8-12.9v10.58l-11.45 7.34c-.36.2-.55.56-.55.92v17.5c0 .42.25.8.6.97l10.24 5.33.13.06c-.25.85-.43 1.7-.43 2.7 0 .3 0 .6.06.9.37 3.8 3.72 6.8 7.67 6.8h2.5l-5 2.75zm16.44-37.93l-12.54-7.34v-10.58l21.86 12.9v21.72c-.67-.67-1.4-1.22-2.38-1.47-1.34-.42-2.8-.18-3.95.62-.54-1.17-1.27-2.2-2.13-3.06-.12-.12-.18-.18-.3-.24v-11.62c0-.37-.18-.73-.55-.92zm11.45 20.3v-25.92c0-.37-.18-.74-.5-.92l-24.04-14.25c-.3-.2-.73-.2-1.1 0-.3.24-.55.55-.55.98v13.1c0 .36.25.73.55.98l12.55 7.27v9.36c-2.74-1.52-5.97-1.7-9.02-.42-1.1.5-2.07 1.23-2.92 2.08l-3.35-3.85 7.48-8.62h-2.92l-6.76 7.4v-7.64h-2.13v18.6h2.13v-8.75l4.02 4.7c-1.04 1.65-1.65 3.6-1.65 5.56v.37c-1.52.5-2.68 1.4-3.47 2.57l-9.8-5.14v-16.2l11.5-7.35c.3-.17.5-.54.5-.9v-13.1c0-.42-.2-.73-.55-.97-.3-.2-.73-.2-1.1 0l-24 14.25c-.36.18-.54.55-.54.92v30.58c0 .43.25.8.62.98l26.67 14.2c.17.05.36.1.48.1.18 0 .36-.05.54-.1l8.96-4.97h16.56c2.44-.2 7.07-2.03 7.07-7.65 0-4.04-2.5-6.3-5.23-7.22z" stroke="#000" stroke-opacity="0" fill="#fff"/><use xlink:href="#v" transform="matrix(1,0,0,1,1750,-683.6239115401133) translate(23.904513888888886 17.22222222222222)"/><use xlink:href="#w" transform="matrix(1,0,0,1,1750,-683.6239115401133) translate(62.76736111111111 17.22222222222222)"/><use xlink:href="#x" transform="matrix(1,0,0,1,1750,-683.6239115401133) translate(50.744791666666664 43.034722222222214)"/><path d="M1819.66-611.73c-1.14.1-2.05.34-2.96.8l-39.44 19.43c-2.16 1.02-3.64 2.84-4.1 5.23l-9.77 43.76c-.47 2.04-.13 4.08 1 5.9.13.23.24.34.47.57l27.28 35c1.48 1.94 3.52 2.97 5.9 2.97h43.9c2.38 0 4.42-1.03 5.9-2.96l27.28-35c1.48-1.94 2.05-4.22 1.48-6.6l-9.77-43.65c-.45-2.4-1.93-4.2-4.1-5.23l-39.43-19.44c-1.25-.57-2.4-.9-3.64-.8z" stroke="#000" stroke-opacity="0" stroke-width="3.83" fill="#326ce5"/><path d="M1819.64-614.9c-1.2.12-2.16.36-3.12.84l-41.64 20.52c-2.28 1.08-3.84 3-4.32 5.52l-10.32 46.2c-.48 2.16-.12 4.32 1.08 6.24.12.24.24.36.48.6l28.8 36.96c1.56 2.04 3.72 3.12 6.24 3.12h46.32c2.52 0 4.68-1.08 6.24-3.12l28.8-36.96c1.56-2.04 2.16-4.44 1.56-6.84l-10.32-46.2c-.48-2.52-2.04-4.44-4.32-5.52l-41.64-20.52c-1.32-.6-2.52-.96-3.84-.84zm0 3.24c1.32-.12 2.4.12 3.6.72l39.6 19.44c2.04 1.08 3.48 2.88 4.08 5.28l9.72 43.68c.48 2.4 0 4.56-1.44 6.48l-27.36 35.04c-1.44 1.92-3.48 3-5.88 3h-43.92c-2.4 0-4.44-1.08-5.88-3l-27.36-35.04c-.12-.12-.24-.36-.36-.6-1.2-1.8-1.56-3.72-1.08-5.88l9.72-43.68c.6-2.4 1.92-4.2 4.08-5.28l39.6-19.44c.96-.48 1.8-.72 2.88-.84z" stroke="#000" stroke-opacity="0" stroke-width="3.83" fill="#fff"/><path d="M1797.57-507.67v-6.5c0-.97-.13-1.66-.4-2.03-.26-.4-.73-.57-1.4-.57-.7 0-1.26.28-1.67.83-.42.55-.62 1.33-.62 2.34v5.93h-1.64v-8.04c0-1.2-.02-1.93-.06-2.2h1.56l.02.26v.48c.03.18.04.5.05 1h.04c.36-.72.76-1.22 1.22-1.5.46-.28 1.02-.43 1.67-.43.75 0 1.36.17 1.8.47.43.3.73.8.9 1.48h.03c.34-.7.76-1.18 1.23-1.48.5-.3 1.07-.46 1.77-.46 1 0 1.72.3 2.18.86.46.56.7 1.48.7 2.76v6.8h-1.64v-6.48c0-.98-.13-1.67-.4-2.04-.25-.4-.73-.57-1.4-.57-.73 0-1.3.28-1.7.83-.4.55-.6 1.33-.6 2.34v5.93zM1810-507.5c-1 0-1.76-.26-2.26-.8-.5-.55-.75-1.3-.75-2.23 0-1.06.33-1.87 1-2.44.68-.56 1.77-.87 3.27-.9l2.23-.04v-.58c0-.82-.17-1.4-.5-1.78-.36-.36-.9-.54-1.63-.54-.73 0-1.27.13-1.6.4-.35.25-.55.66-.62 1.23l-1.72-.16c.28-1.84 1.6-2.76 3.98-2.76 1.25 0 2.2.3 2.82.9.63.58.95 1.43.95 2.55v4.4c0 .5.06.9.2 1.15.12.25.37.37.72.37.15 0 .33-.02.53-.06v1.07c-.4.1-.84.15-1.27.15-.6 0-1.06-.16-1.34-.5-.27-.33-.43-.85-.46-1.55h-.06c-.43.77-.92 1.34-1.48 1.67-.56.3-1.23.47-2.03.47zm.37-1.26c.6 0 1.13-.15 1.6-.42.48-.3.84-.68 1.1-1.17.3-.5.43-1 .43-1.53v-.85l-1.8.05c-.8 0-1.37.1-1.78.24-.4.15-.7.38-.9.7-.23.32-.33.73-.33 1.24 0 .55.13.98.42 1.28.3.3.7.46 1.25.46zM1825.35-510.5c0 .96-.36 1.7-1.07 2.23-.7.52-1.68.8-2.96.8-1.23 0-2.2-.23-2.86-.64-.66-.43-1.1-1.1-1.3-1.97l1.46-.3c.14.55.43.95.87 1.22.43.25 1.04.38 1.82.38.84 0 1.45-.14 1.83-.4.4-.27.6-.67.6-1.2 0-.4-.14-.73-.4-.98-.28-.25-.7-.46-1.3-.62l-1.2-.32c-.94-.25-1.62-.5-2.02-.74-.4-.24-.7-.53-.93-.88-.23-.34-.35-.78-.35-1.27 0-.92.32-1.63.97-2.12.65-.5 1.6-.74 2.82-.74 1.1 0 1.96.2 2.6.6.65.4 1.06 1.03 1.23 1.9l-1.5.2c-.08-.46-.32-.8-.72-1.05-.4-.25-.93-.37-1.6-.37-.75 0-1.3.12-1.66.35-.36.23-.54.58-.54 1.06 0 .28.07.53.22.72.15.18.36.35.65.47.3.14.9.32 1.8.55.9.23 1.52.44 1.9.64.4.2.7.4.9.63.23.24.4.5.54.82.12.3.18.64.18 1.03zM1831.1-507.75c-.53.15-1.1.23-1.66.23-1.32 0-1.98-.77-1.98-2.32v-6.82h-1.15v-1.23h1.22l.5-2.28h1.1v2.3h1.82v1.22h-1.83v6.45c0 .5.1.83.24 1.03.16.2.43.3.8.3.23 0 .55-.05.97-.13zM1833.76-512.42c0 1.16.23 2.07.7 2.7.48.65 1.16.96 2.07.96.7 0 1.3-.14 1.72-.44.43-.3.72-.67.87-1.13l1.45.43c-.6 1.6-1.93 2.42-4.04 2.42-1.47 0-2.6-.45-3.36-1.35-.76-.9-1.14-2.25-1.14-4.02 0-1.68.38-3 1.14-3.9.77-.9 1.87-1.34 3.3-1.34 2.9 0 4.37 1.83 4.37 5.44v.24zm5.37-1.3c-.1-1.1-.35-1.87-.8-2.36-.43-.5-1.07-.74-1.9-.74-.8 0-1.42.27-1.9.82-.47.55-.7 1.3-.75 2.27zM1843-507.67v-7.84c0-.73-.03-1.52-.07-2.4h1.56l.07 2.1h.03c.26-.88.57-1.48.9-1.8.35-.33.84-.5 1.45-.5.22 0 .45.05.67.1v1.57c-.2-.06-.5-.1-.87-.1-.7 0-1.2.3-1.57.92-.36.6-.54 1.46-.54 2.6v5.33z" stroke="#000" stroke-opacity="0" fill="#fff"/><path d="M1819.87-592.46c-.94 0-26.54 12.94-26.88 13.62-.8 1.6-6.68 29.38-6.35 30 .2.32 4.4 5.85 9.34 12.18l9 11.6h29.54l9.4-12.14 9.4-12.06-3.26-14.9c-1.8-8.15-3.47-15.02-3.6-15.16-.47-.47-26.08-13.14-26.6-13.14zm1.6 13.62c1.2.06 1.33 1.95 4 2.15 3.47.28 3.13-3.02 5.74-.73 2.67 2.36-.6 2.5.27 6 .8 3.5 3.8 2.1 2.47 5.4-1.33 3.36-2.47.2-5.47 2.08-2.93 1.9-.73 4.38-4.2 4.1-3.47-.26-.93-2.35-3.6-4.7-2.67-2.3-4.27.6-5.07-2.9-.87-3.44 1.87-1.62 3.2-4.92 1.34-3.37-1.87-4.05 1.07-5.93l1-.48c.2-.06.4-.06.6-.06zm3.47 3.9c-.54 0-1 .07-1.54.2-2.6.82-4.13 3.7-3.33 6.48.8 2.76 3.6 4.3 6.27 3.5 2.67-.88 4.2-3.77 3.4-6.47-.67-2.22-2.6-3.7-4.8-3.7zm-19.94 8.9c.26 0 .6.07 1 .2 3.2 1-.07 2.76 2.2 5.26 2.33 2.56 4.2-.67 4.93 2.7.8 3.3-2.33 1.27-3.27 4.58-1 3.3 2.67 3.37.2 5.72-2.4 2.36-2.26-1.4-5.53-.6-3.27.74-1.47 4.04-4.67 3.03-3.2-1 .07-2.7-2.27-5.25-2.27-2.5-4.14.67-4.88-2.63-.8-3.37 2.27-1.35 3.27-4.65 1-3.3-2.67-3.37-.2-5.73 2.4-2.37 2.26 1.4 5.53.66 2.8-.67 1.87-3.3 3.67-3.3zm23.74 3.64c.33 0 .66.07 1.13.27 3.67 1.48-1.13 3.7 1.67 6.54 2.87 2.84 4.87-2.3 6.47 1.42 1.6 3.77-3.4 1.82-3.33 5.86.14 4.12 5 1.96 3.6 5.73-1.46 3.8-3.66-1.2-6.4 1.76-2.73 2.97 2.2 5-1.4 6.6-3.6 1.7-1.73-3.5-5.67-3.36-3.93.07-1.86 5.12-5.53 3.64s1.13-3.7-1.67-6.54c-2.87-2.83-4.87 2.3-6.47-1.48-1.6-3.7 3.4-1.75 3.34-5.86-.14-4.05-5-1.9-3.6-5.66 1.46-3.85 3.66 1.2 6.4-1.76 2.73-2.96-2.2-4.98 1.4-6.6 3.6-1.7 1.73 3.44 5.67 3.37 3.46-.06 2.26-3.97 4.4-3.9zm-25.8 1.75c-2.8 0-5.08 2.3-5.08 5.2 0 2.82 2.27 5.18 5.07 5.18 2.8 0 5-2.36 5-5.2 0-2.9-2.2-5.18-5-5.18zm21.6 4.92c-4.07 0-7.4 3.44-7.4 7.68 0 4.25 3.33 7.62 7.4 7.62 4.13 0 7.47-3.37 7.47-7.62 0-4.24-3.33-7.68-7.46-7.68z" stroke="#000" stroke-opacity="0" stroke-width="0" fill="#fff"/><use xlink:href="#y" transform="matrix(1,0,0,1,1730,-485.9008895214164) translate(53.671875 21.52777777777778)"/><path d="M1399.66-424.5c-1.14.12-2.05.35-2.96.8l-39.44 19.44c-2.16 1.02-3.64 2.84-4.1 5.23l-9.77 43.76c-.47 2.04-.13 4.1 1 5.9.13.24.24.35.47.58l27.28 35.02c1.48 1.93 3.52 2.95 5.9 2.95h43.9c2.38 0 4.42-1.02 5.9-2.95l27.28-35c1.48-1.94 2.05-4.22 1.48-6.6l-9.77-43.65c-.45-2.4-1.93-4.2-4.1-5.23l-39.43-19.44c-1.25-.57-2.4-.9-3.64-.8z" stroke="#000" stroke-opacity="0" stroke-width="3.83" fill="#326ce5"/><path d="M1399.64-427.66c-1.2.12-2.16.36-3.12.84l-41.64 20.52c-2.28 1.08-3.84 3-4.32 5.52l-10.32 46.2c-.48 2.16-.12 4.32 1.08 6.24.12.24.24.36.48.6l28.8 36.96c1.56 2.04 3.72 3.12 6.24 3.12h46.32c2.52 0 4.68-1.08 6.24-3.12l28.8-36.96c1.56-2.04 2.16-4.44 1.56-6.84l-10.32-46.2c-.48-2.52-2.04-4.44-4.32-5.52l-41.64-20.52c-1.32-.6-2.52-.96-3.84-.84zm0 3.24c1.32-.12 2.4.12 3.6.72l39.6 19.44c2.04 1.08 3.48 2.88 4.08 5.28l9.72 43.68c.48 2.4 0 4.56-1.44 6.48l-27.36 35.04c-1.44 1.92-3.48 3-5.88 3h-43.92c-2.4 0-4.44-1.08-5.88-3l-27.36-35.04c-.12-.12-.24-.36-.36-.6-1.2-1.8-1.56-3.72-1.08-5.88l9.72-43.68c.6-2.4 1.92-4.2 4.08-5.28l39.6-19.44c.96-.48 1.8-.72 2.88-.84z" stroke="#000" stroke-opacity="0" stroke-width="3.83" fill="#fff"/><path d="M1394.02-325.6c0 3.57-1.2 5.36-3.64 5.36-1.53 0-2.56-.6-3.08-1.8h-.05c.03.06.04.6.04 1.62v4h-1.66v-12.16c0-1.05-.02-1.74-.06-2.1h1.6l.02.28c.02.16.03.4.04.72l.03.65h.04c.3-.62.7-1.08 1.17-1.37.48-.3 1.1-.44 1.9-.44 1.23 0 2.14.4 2.74 1.26.62.84.92 2.17.92 3.98zm-1.73.03c0-1.4-.2-2.43-.56-3.04-.38-.63-.97-.93-1.8-.93-.64 0-1.15.14-1.52.43-.37.28-.65.72-.85 1.33-.2.6-.28 1.38-.28 2.33 0 1.36.2 2.34.6 2.97.43.64 1.1.96 2.04.96.82 0 1.4-.32 1.78-.94.38-.62.57-1.66.57-3.13zM1404.48-325.56c0 1.8-.4 3.13-1.15 4-.76.88-1.88 1.3-3.33 1.3-1.44 0-2.54-.44-3.28-1.35-.74-.93-1.1-2.24-1.1-3.96 0-3.53 1.47-5.3 4.44-5.3 1.52 0 2.63.44 3.34 1.3.72.86 1.08 2.2 1.08 4zm-1.73 0c0-1.4-.22-2.44-.62-3.07-.4-.64-1.1-.96-2.04-.96-.98 0-1.68.33-2.1 1-.44.63-.66 1.65-.66 3.04 0 1.35.2 2.37.64 3.04.42.68 1.1 1 2 1 1 0 1.7-.3 2.12-.97.43-.64.65-1.67.65-3.06zM1412.8-322.08c-.3.65-.7 1.12-1.22 1.4-.5.3-1.13.43-1.87.43-1.24 0-2.17-.44-2.76-1.3-.6-.87-.88-2.2-.88-3.96 0-3.57 1.22-5.35 3.65-5.35.76 0 1.38.14 1.9.43.5.28.9.74 1.2 1.35V-334.47h1.64v11.9c0 1.07.03 1.8.06 2.13h-1.58l-.06-.7c0-.37-.03-.68-.03-.95zm-5-3.48c0 1.43.18 2.45.54 3.07.37.63.96.94 1.8.94.93 0 1.6-.34 2.02-1 .43-.67.64-1.7.64-3.12 0-1.35-.2-2.34-.64-2.97-.42-.62-1.1-.95-2-.95-.84 0-1.44.33-1.82.97-.36.62-.55 1.64-.55 3.07z" stroke="#000" stroke-opacity="0" fill="#fff"/><path d="M1375.92-387.47l24.08-7.2 24.1 7.2-24.1 7.2zM1375.92-384.7v26.4l22.43 12.82.12-32.32zM1424.08-384.7v26.4l-22.44 12.82-.1-32.32z" stroke="#000" stroke-opacity="0" stroke-width="3.77" fill="#fff"/><use xlink:href="#z" transform="matrix(1,0,0,1,1310,-298.6634137258279) translate(69.49761284722223 21.52777777777778)"/><path d="M1019.66-412.5c-1.14.1-2.05.34-2.96.8l-39.44 19.43c-2.16 1.02-3.64 2.84-4.1 5.23l-9.77 43.76c-.47 2.05-.13 4.1 1 5.9.12.24.24.35.47.58l27.28 35c1.48 1.94 3.52 2.97 5.9 2.97h43.9c2.38 0 4.42-1.03 5.9-2.96l27.28-35c1.48-1.93 2.05-4.2 1.48-6.6l-9.77-43.64c-.45-2.4-1.93-4.2-4.1-5.23l-39.44-19.44c-1.26-.58-2.4-.92-3.64-.8z" stroke="#000" stroke-opacity="0" stroke-width="3.83" fill="#326ce5"/><path d="M1019.64-415.66c-1.2.12-2.16.36-3.12.84l-41.64 20.52c-2.28 1.08-3.84 3-4.32 5.52l-10.32 46.2c-.48 2.16-.12 4.32 1.08 6.24.12.24.24.36.48.6l28.8 36.96c1.56 2.04 3.72 3.12 6.24 3.12h46.32c2.52 0 4.68-1.08 6.24-3.12l28.8-36.96c1.56-2.04 2.16-4.44 1.56-6.96l-10.32-46.08c-.48-2.52-2.04-4.44-4.32-5.52l-41.64-20.52c-1.32-.6-2.52-.96-3.84-.84zm0 3.24c1.32-.12 2.4.12 3.6.72l39.6 19.44c2.04 1.08 3.48 2.88 4.08 5.28l9.72 43.68c.48 2.4 0 4.56-1.44 6.48l-27.36 35.04c-1.44 1.92-3.48 3-5.88 3h-43.92c-2.4 0-4.44-1.08-5.88-3l-27.36-35.04c-.12-.12-.24-.36-.36-.6-1.2-1.8-1.56-3.72-1.08-5.88l9.72-43.68c.6-2.4 1.92-4.2 4.08-5.28l39.6-19.44c.96-.48 1.8-.72 2.88-.72z" stroke="#000" stroke-opacity="0" stroke-width="3.83" fill="#fff"/><path d="M1014.43-311.3c0 .98-.35 1.72-1.06 2.25-.7.5-1.7.78-2.97.78-1.23 0-2.18-.2-2.86-.63-.66-.42-1.1-1.07-1.3-1.96l1.46-.3c.14.55.43.95.87 1.22.44.25 1.05.38 1.83.38.85 0 1.45-.14 1.84-.4.4-.27.6-.67.6-1.2 0-.4-.15-.73-.42-.98s-.7-.46-1.3-.63l-1.2-.3c-.93-.27-1.6-.5-2-.75-.4-.25-.72-.54-.94-.9-.23-.33-.34-.76-.34-1.26 0-.93.32-1.64.96-2.13.65-.5 1.6-.75 2.83-.75 1.1 0 1.95.2 2.6.6.65.4 1.06 1.03 1.23 1.9l-1.5.2c-.08-.46-.33-.8-.73-1.05-.4-.24-.93-.36-1.6-.36-.75 0-1.3.12-1.66.35-.35.22-.53.57-.53 1.05 0 .28.08.53.22.72.15.18.36.35.65.48.3.13.9.3 1.83.55.87.22 1.5.43 1.9.63.37.2.67.4.9.63.22.24.4.5.52.82.12.3.18.64.18 1.03zM1020.72-308.48h-1.95l-3.6-10.22h1.76l2.18 6.66c.08.24.3 1 .64 2.24l.32-1.1.36-1.12 2.25-6.68h1.75zM1027-313.6c0 1.34.22 2.35.63 3 .4.67 1.04.98 1.88.98.6 0 1.1-.15 1.47-.48.4-.33.65-.83.74-1.5l1.68.1c-.13.98-.54 1.77-1.22 2.35-.68.58-1.55.88-2.6.88-1.4 0-2.45-.44-3.18-1.35-.73-.9-1.1-2.22-1.1-3.96 0-1.72.37-3.03 1.1-3.94.73-.9 1.8-1.35 3.15-1.35 1.02 0 1.87.27 2.53.8.67.56 1.1 1.3 1.26 2.25l-1.7.13c-.08-.55-.3-1-.65-1.34-.34-.34-.84-.5-1.48-.5-.88 0-1.5.3-1.9.9-.4.6-.6 1.6-.6 3.03z" stroke="#000" stroke-opacity="0" fill="#fff"/><path d="M983.93-346.53h19.35v14h-19.35zM1010.33-346.53h19.34v14h-19.35zM1036.72-346.53h19.35v14h-19.35zM1004.67-388h30.65v14h-30.65z" stroke="#000" stroke-opacity="0" stroke-width="3.77" fill="#fff"/><path d="M1018.23-374.03v11.93h-24.6c-1 0-1.77.83-1.77 1.8v13.75h3.5v-11.92H1020c.98 0 1.75-.8 1.75-1.8v-13.76z" stroke="#000" stroke-opacity="0" stroke-width="3.77" fill="#fff"/><path d="M1018.25-374.03v13.74c0 1.03.77 1.83 1.76 1.83h24.6v11.93h3.54v-13.75c0-.97-.78-1.8-1.76-1.8h-24.64v-11.93z" stroke="#000" stroke-opacity="0" stroke-width="3.77" fill="#fff"/><path d="M1018.18-374.03v13.74c0 .24.04.45.12.65v13.1h3.52v-13.74c0-.2-.04-.4-.12-.62v-13.1z" stroke="#000" stroke-opacity="0" stroke-width="3.77" fill="#fff"/><use xlink:href="#A" transform="matrix(1,0,0,1,930.0000000000002,-286.6598102546998) translate(21.005859375 21.52777777777778)"/><use xlink:href="#B" transform="matrix(1,0,0,1,930.0000000000002,-286.6598102546998) translate(79.44769965277777 21.52777777777778)"/><path d="M520-140h87.38v87.38H520V-140z" stroke="#000" stroke-opacity="0" fill="#e7157b"/><path d="M572.43-91.48v-8.44l-7.64 4.22v8.38l7.63-4.16zm-17.5-1.04l7.66 5.02v-8.2l-7.66-4.22v7.4zm1.17-9.23l7.6 4.15 7.57-4.16-7.58-4.22-7.6 4.23zm18.54 0v10.88c0 .43-.25.8-.62.98l-9.78 5.4c-.2.1-.37.1-.55.1-.2.02-.44-.05-.62-.17l-9.85-6.48c-.3-.2-.5-.55-.5-.92v-9.78c0-.43.25-.8.62-.98l9.8-5.45c.36-.18.72-.18 1.1 0l9.77 5.45c.37.18.62.55.62.98zm19.63 4.34H582.7l5.76-5.82-1.53-1.53-7.64 7.64c-.44.42-.44 1.16 0 1.52l7.63 7.7 1.53-1.58-5.75-5.75h11.57v-2.2zm-52.66-8.33l-1.7 1.34 5.2 7h-12v2.2h11.57l-5.75 5.74 1.53 1.6 7.64-7.72c.36-.36.42-.98.05-1.4l-6.54-8.75zm23.2 36.02v-11.32h-2.2v11.3l-5.76-6.6-1.6 1.48 7.65 8.74c.18.25.48.37.8.37.3 0 .6-.12.78-.37l7.65-8.74-1.6-1.47-5.74 6.6zm-7.96-46.67l-1.6-1.4 7.65-8.76c.36-.5 1.22-.5 1.58 0l7.65 8.75-1.6 1.4-5.74-6.54v11.32h-2.2v-11.32l-5.76 6.55z" stroke="#000" stroke-opacity="0" fill="#fff"/><use xlink:href="#C" transform="matrix(1,0,0,1,490,-43.62391154011334) translate(21.336154513888886 21.52777777777778)"/><use xlink:href="#D" transform="matrix(1,0,0,1,490,-43.62391154011334) translate(77.81401909722223 21.52777777777778)"/><use xlink:href="#E" transform="matrix(1,0,0,1,490,-43.62391154011334) translate(35.41493055555556 53.79340277777778)"/><path d="M-360-427.66h120v120h-120v-120z" stroke="#000" stroke-opacity="0" fill="#8c4fff"/><path d="M-314.94-348.1c-10.73 0-19.5-8.78-19.5-19.5 0-10.73 8.77-19.5 19.5-19.5s19.5 8.77 19.5 19.5c0 10.72-8.77 19.5-19.5 19.5m45 9c0 3.3-2.7 6-6 6s-6-2.7-6-6 2.7-6 6-6 6 2.7 6 6m-6-63c3.3 0 6 2.7 6 6s-2.7 6-6 6-6-2.7-6-6 2.7-6 6-6m4.5 28.5c3.3 0 6 2.7 6 6s-2.7 6-6 6-6-2.7-6-6 2.7-6 6-6m-21.07 7.5h12.2c.7 4.27 4.44 7.5 8.86 7.5 4.95 0 9-4.05 9-9s-4.05-9-9-9c-4.43 0-8.18 3.22-8.85 7.5h-12.2c-.24-2.85-.92-5.55-2.12-8.03l13.36-11.77c1.5 1.12 3.3 1.8 5.32 1.8 4.95 0 9-4.05 9-9s-4.05-9-9-9-9 4.05-9 9c0 1.87.6 3.6 1.57 5.1l-12.67 11.17c-4.05-6.15-11.02-10.27-18.9-10.27-12.38 0-22.5 10.12-22.5 22.5 0 12.37 10.13 22.5 22.5 22.5 7.88 0 14.85-4.13 18.9-10.28l12.68 11.18c-.98 1.5-1.58 3.22-1.58 5.1 0 4.95 4.05 9 9 9s9-4.05 9-9-4.05-9-9-9c-2.02 0-3.82.67-5.32 1.8l-13.36-11.78c1.2-2.47 1.88-5.17 2.1-8.02" stroke="#000" stroke-opacity="0" fill="#fff"/><use xlink:href="#F" transform="matrix(1,0,0,1,-390,-298.6634137258279) translate(26.631944444444443 21.52777777777778)"/><use xlink:href="#G" transform="matrix(1,0,0,1,-390,-298.6634137258279) translate(101.17621527777779 21.52777777777778)"/><use xlink:href="#H" transform="matrix(1,0,0,1,-390,-298.6634137258279) translate(38.578559027777786 53.79340277777778)"/><path d="M-362.4 122.06h120v120h-120v-120z" stroke="#000" stroke-opacity="0" fill="#8c4fff"/><path d="M-317.34 201.63c-10.73 0-19.5-8.78-19.5-19.5 0-10.73 8.77-19.5 19.5-19.5 10.72 0 19.5 8.77 19.5 19.5 0 10.72-8.78 19.5-19.5 19.5m45 9c0 3.3-2.7 6-6 6s-6-2.7-6-6 2.7-6 6-6 6 2.7 6 6m-6-63c3.3 0 6 2.7 6 6s-2.7 6-6 6-6-2.7-6-6 2.7-6 6-6m4.5 28.5c3.3 0 6 2.7 6 6s-2.7 6-6 6-6-2.7-6-6 2.7-6 6-6m-21.08 7.5h12.23c.68 4.27 4.43 7.5 8.86 7.5 4.95 0 9-4.06 9-9 0-4.95-4.05-9-9-9-4.43 0-8.18 3.22-8.85 7.5h-12.22c-.22-2.85-.9-5.56-2.1-8.03l13.35-11.78c1.5 1.13 3.3 1.8 5.33 1.8 4.95 0 9-4.05 9-9 0-4.94-4.05-9-9-9s-9 4.06-9 9c0 1.88.6 3.6 1.57 5.1l-12.67 11.18c-4.05-6.15-11.03-10.28-18.9-10.28-12.38 0-22.5 10.13-22.5 22.5 0 12.38 10.12 22.5 22.5 22.5 7.87 0 14.85-4.12 18.9-10.27l12.67 11.18c-.97 1.5-1.57 3.22-1.57 5.1 0 4.94 4.05 9 9 9s9-4.06 9-9c0-4.95-4.05-9-9-9-2.03 0-3.83.67-5.33 1.8l-13.35-11.78c1.2-2.47 1.88-5.18 2.1-8.03" stroke="#000" stroke-opacity="0" fill="#fff"/><use xlink:href="#F" transform="matrix(1,0,0,1,-392.4040798611111,251.0653415946797) translate(26.631944444444443 21.52777777777778)"/><use xlink:href="#G" transform="matrix(1,0,0,1,-392.4040798611111,251.0653415946797) translate(101.17621527777779 21.52777777777778)"/><use xlink:href="#H" transform="matrix(1,0,0,1,-392.4040798611111,251.0653415946797) translate(38.578559027777786 53.79340277777778)"/><path d="M1019.66 175.16c-1.14.1-2.05.34-2.96.8l-39.44 19.43c-2.16 1-3.64 2.83-4.1 5.22l-9.77 43.76c-.47 2.05-.13 4.1 1 5.9.12.24.24.36.47.58l27.28 35c1.48 1.95 3.52 2.97 5.9 2.97h43.9c2.38 0 4.42-1.02 5.9-2.96l27.28-35c1.48-1.94 2.05-4.2 1.48-6.6l-9.77-43.65c-.45-2.4-1.93-4.2-4.1-5.23l-39.44-19.44c-1.26-.57-2.4-.92-3.64-.8z" stroke="#000" stroke-opacity="0" stroke-width="3.83" fill="#326ce5"/><path d="M1019.64 172c-1.2.12-2.16.36-3.12.84l-41.64 20.52c-2.28 1.08-3.84 3-4.32 5.52l-10.32 46.2c-.48 2.16-.12 4.32 1.08 6.24.12.24.24.36.48.6l28.8 36.96c1.56 2.04 3.72 3.12 6.24 3.12h46.32c2.52 0 4.68-1.08 6.24-3.12l28.8-36.96c1.56-2.04 2.16-4.44 1.56-6.96l-10.32-46.08c-.48-2.52-2.04-4.44-4.32-5.52l-41.64-20.52c-1.32-.6-2.52-.96-3.84-.84zm0 3.24c1.32-.12 2.4.12 3.6.72l39.6 19.44c2.04 1.08 3.48 2.88 4.08 5.28l9.72 43.68c.48 2.4 0 4.56-1.44 6.48l-27.36 35.04c-1.44 1.92-3.48 3-5.88 3h-43.92c-2.4 0-4.44-1.08-5.88-3l-27.36-35.04c-.12-.12-.24-.36-.36-.6-1.2-1.8-1.56-3.72-1.08-5.88l9.72-43.68c.6-2.4 1.92-4.2 4.08-5.28l39.6-19.44c.96-.48 1.8-.72 2.88-.72z" stroke="#000" stroke-opacity="0" stroke-width="3.83" fill="#fff"/><path d="M1014.43 276.38c0 .96-.35 1.7-1.06 2.23-.7.53-1.7.8-2.97.8-1.23 0-2.18-.22-2.86-.63-.66-.42-1.1-1.08-1.3-1.97l1.46-.3c.14.55.43.96.87 1.22.44.25 1.05.38 1.83.38.85 0 1.45-.14 1.84-.4.4-.26.6-.67.6-1.2 0-.4-.15-.73-.42-.98-.27-.24-.7-.45-1.3-.62l-1.2-.32c-.93-.25-1.6-.5-2-.74-.4-.24-.72-.54-.94-.9-.23-.33-.34-.76-.34-1.26 0-.93.32-1.64.96-2.12.65-.5 1.6-.74 2.83-.74 1.1 0 1.95.2 2.6.6.65.4 1.06 1.02 1.23 1.9l-1.5.2c-.08-.46-.33-.8-.73-1.05-.4-.25-.93-.36-1.6-.36-.75 0-1.3.12-1.66.36-.35.23-.53.58-.53 1.05 0 .3.08.54.22.73.15.18.36.35.65.48.3.15.9.33 1.83.56.87.22 1.5.43 1.9.63.37.18.67.4.9.63.22.23.4.5.52.8.12.3.18.66.18 1.05zM1020.72 279.2h-1.95l-3.6-10.24h1.76l2.18 6.66c.08.25.3 1 .64 2.24l.32-1.1.36-1.12 2.25-6.68h1.75zM1027 274.05c0 1.36.22 2.36.63 3.02.4.66 1.04.98 1.88.98.6 0 1.1-.16 1.47-.5.4-.32.65-.82.74-1.5l1.68.1c-.13 1-.54 1.78-1.22 2.36-.68.6-1.55.9-2.6.9-1.4 0-2.45-.45-3.18-1.35-.73-.92-1.1-2.23-1.1-3.97 0-1.7.37-3.03 1.1-3.93.73-.9 1.8-1.36 3.15-1.36 1.02 0 1.87.27 2.53.8.67.55 1.1 1.3 1.26 2.25l-1.7.12c-.08-.56-.3-1.02-.65-1.34-.34-.34-.84-.5-1.48-.5-.88 0-1.5.3-1.9.9-.4.6-.6 1.6-.6 3.02z" stroke="#000" stroke-opacity="0" fill="#fff"/><path d="M983.93 241.13h19.35v14h-19.35zM1010.33 241.13h19.34v14h-19.35zM1036.72 241.13h19.35v14h-19.35zM1004.67 199.65h30.65v14h-30.65z" stroke="#000" stroke-opacity="0" stroke-width="3.77" fill="#fff"/><path d="M1018.23 213.64v11.92h-24.6c-1 0-1.77.83-1.77 1.82v13.74h3.5V229.2H1020c.98 0 1.75-.8 1.75-1.82v-13.74z" stroke="#000" stroke-opacity="0" stroke-width="3.77" fill="#fff"/><path d="M1018.25 213.64v13.74c0 1.02.77 1.8 1.76 1.8h24.6v11.94h3.54v-13.74c0-1-.78-1.8-1.76-1.8l-24.64-.02v-11.92z" stroke="#000" stroke-opacity="0" stroke-width="3.77" fill="#fff"/><path d="M1018.18 213.64v13.74c0 .22.04.44.12.63v13.12h3.52v-13.74c0-.22-.04-.4-.12-.63v-13.1z" stroke="#000" stroke-opacity="0" stroke-width="3.77" fill="#fff"/><use xlink:href="#A" transform="matrix(1,0,0,1,930.0000000000002,301.00360347112814) translate(21.005859375 21.52777777777778)"/><use xlink:href="#I" transform="matrix(1,0,0,1,930.0000000000002,301.00360347112814) translate(79.44769965277777 21.52777777777778)"/><path d="M1399.66 163.17c-1.14.1-2.05.34-2.96.8l-39.44 19.43c-2.16 1.02-3.64 2.84-4.1 5.23l-9.77 43.76c-.47 2.04-.13 4.1 1 5.9.13.23.24.34.47.57l27.28 35c1.48 1.94 3.52 2.97 5.9 2.97h43.9c2.38 0 4.42-1.03 5.9-2.96l27.28-35c1.48-1.94 2.05-4.2 1.48-6.6l-9.77-43.65c-.45-2.4-1.93-4.2-4.1-5.23l-39.43-19.44c-1.25-.56-2.4-.9-3.64-.8z" stroke="#000" stroke-opacity="0" stroke-width="3.83" fill="#326ce5"/><path d="M1399.64 160c-1.2.12-2.16.36-3.12.84l-41.64 20.52c-2.28 1.08-3.84 3-4.32 5.52l-10.32 46.2c-.48 2.16-.12 4.32 1.08 6.24.12.24.24.36.48.6l28.8 36.96c1.56 2.04 3.72 3.12 6.24 3.12h46.32c2.52 0 4.68-1.08 6.24-3.12l28.8-36.96c1.56-2.04 2.16-4.44 1.56-6.84l-10.32-46.2c-.48-2.52-2.04-4.44-4.32-5.52l-41.64-20.52c-1.32-.6-2.52-.96-3.84-.84zm0 3.24c1.32-.12 2.4.12 3.6.72l39.6 19.44c2.04 1.08 3.48 2.88 4.08 5.28l9.72 43.68c.48 2.4 0 4.56-1.44 6.48l-27.36 35.04c-1.44 1.92-3.48 3-5.88 3h-43.92c-2.4 0-4.44-1.08-5.88-3l-27.36-35.04c-.12-.12-.24-.36-.36-.6-1.2-1.8-1.56-3.72-1.08-5.88l9.72-43.68c.6-2.4 1.92-4.2 4.08-5.28l39.6-19.44c.96-.48 1.8-.72 2.88-.84z" stroke="#000" stroke-opacity="0" stroke-width="3.83" fill="#fff"/><path d="M1394.02 262.07c0 3.56-1.2 5.35-3.64 5.35-1.53 0-2.56-.6-3.08-1.8h-.05c.03.07.04.6.04 1.63v4h-1.66v-12.17c0-1.05-.02-1.74-.06-2.1h1.6l.02.3c.02.15.03.38.04.7l.03.66h.04c.3-.62.7-1.08 1.17-1.37.48-.3 1.1-.45 1.9-.45 1.23 0 2.14.42 2.74 1.27.62.82.92 2.15.92 3.97zm-1.73.03c0-1.42-.2-2.44-.56-3.05-.38-.62-.97-.92-1.8-.92-.64 0-1.15.15-1.52.44-.37.27-.65.72-.85 1.32-.2.58-.28 1.38-.28 2.33 0 1.35.2 2.33.6 2.97.43.63 1.1.95 2.04.95.82 0 1.4-.3 1.78-.92.38-.62.57-1.66.57-3.13zM1404.48 262.1c0 1.8-.4 3.13-1.15 4-.76.88-1.88 1.32-3.33 1.32-1.44 0-2.54-.46-3.28-1.36-.74-.92-1.1-2.24-1.1-3.96 0-3.53 1.47-5.3 4.44-5.3 1.52 0 2.63.45 3.34 1.3.72.87 1.08 2.2 1.08 4zm-1.73 0c0-1.4-.22-2.43-.62-3.07-.4-.64-1.1-.95-2.04-.95-.98 0-1.68.3-2.1.97-.44.65-.66 1.67-.66 3.05 0 1.35.2 2.37.64 3.05.42.68 1.1 1 2 1 1 0 1.7-.3 2.12-.97.43-.66.65-1.7.65-3.08zM1412.8 265.58c-.3.66-.7 1.12-1.22 1.4-.5.3-1.13.44-1.87.44-1.24 0-2.17-.45-2.76-1.3-.6-.88-.88-2.2-.88-3.96 0-3.57 1.22-5.35 3.65-5.35.76 0 1.38.16 1.9.44.5.28.9.74 1.2 1.35v-5.4h1.64v11.9c0 1.08.03 1.8.06 2.13h-1.58l-.06-.7c0-.37-.03-.68-.03-.95zm-5-3.48c0 1.44.18 2.46.54 3.07.37.63.96.94 1.8.94.93 0 1.6-.33 2.02-1 .43-.67.64-1.7.64-3.1 0-1.36-.2-2.36-.64-2.98-.42-.63-1.1-.96-2-.96-.84 0-1.44.33-1.82.97-.36.63-.55 1.65-.55 3.07z" stroke="#000" stroke-opacity="0" fill="#fff"/><path d="M1375.92 200.2L1400 193l24.1 7.2-24.1 7.2zM1375.92 202.95v26.4l22.43 12.83.12-32.32zM1424.08 202.95v26.4l-22.44 12.83-.1-32.32z" stroke="#000" stroke-opacity="0" stroke-width="3.77" fill="#fff"/><use xlink:href="#z" transform="matrix(1,0,0,1,1310,289) translate(69.49761284722223 21.52777777777778)"/><path d="M277.34-100h119.24a1.84 1.84 0 0 1 1.84 1.84 1.84 1.84 0 0 0 1.84 1.85h103.36" stroke="#3a414a" fill="none"/><path d="M277.35-99.53h-.4l-.22-.94h.62z" stroke="#3a414a" stroke-width=".05" fill="#3a414a"/><path d="M518.38-96.3l-14.26 4.62v-9.27z" stroke="#3a414a" fill="#3a414a"/><path d="M607.88-96.3h52.73a6 6 0 0 0 6-6v-273.3a6 6 0 0 1 6-6h36.86" stroke="#3a414a" fill="none"/><path d="M607.9-95.84h-.52v-.95h.5z" stroke="#3a414a" stroke-width=".05" fill="#3a414a"/><path d="M724.23-381.6l-14.27 4.64v-9.27z" stroke="#3a414a" fill="#3a414a"/><path d="M657.95-96.7l1 .23.93.4.87.52.77.66.66.78.53.87.4.94.24.97.07 1v272.3l.08.9.2.84.34.8.45.75.56.66.66.57.73.45.8.34.84.2.9.07h33.15v.95h-33.2l-1-.08-.98-.24-.94-.4-.87-.52-.77-.66-.66-.77-.53-.86-.4-.94-.23-.98-.08-1v-272.3l-.07-.9-.2-.84-.34-.8-.45-.74-.56-.66-.66-.56-.73-.45-.8-.33-.85-.2-.88-.08h-49.04v-.95h49.08z" stroke="#3a414a" stroke-width=".05" fill="#3a414a"/><path d="M607.9-95.84h-.52v-.95h.5z" fill="#3a414a"/><path stroke="#3a414a" stroke-width=".05" fill="#3a414a"/><path d="M716.88 188l-14.26 4.64v-9.27z" fill="#3a414a"/><path d="M718.42 188l-16.28 5.3v-10.6zm-15.33 3.98l12.25-3.98-12.26-3.98z" stroke="#3a414a" stroke-width=".05" fill="#3a414a"/><path d="M420-659.5v109.67a6 6 0 0 1-6 6h-708a6 6 0 0 0-6 6v93.78" stroke="#3a414a" fill="none"/><path d="M420.48-659.5h-.96v-.52l.48.02.48-.02z" stroke="#3a414a" stroke-width=".05" fill="#3a414a"/><path d="M-300-429.28l-4.63-14.27h9.26z" stroke="#3a414a" fill="#3a414a"/><path d="M420-659.5v33.5a6 6 0 0 1-6 6h-858a6 6 0 0 0-6 6V76.07a6 6 0 0 0 6 6h135.6a6 6 0 0 1 6 6v17.6" stroke="#3a414a" fill="none"/><path d="M420.48-659.5h-.96v-.52l.48.02.48-.02z" stroke="#3a414a" stroke-width=".05" fill="#3a414a"/><path d="M-302.4 120.45l-4.64-14.27h9.27z" stroke="#3a414a" fill="#3a414a"/><path d="M219.66-156.83c-1.14.1-2.05.34-2.96.8l-39.44 19.43c-2.16 1.02-3.64 2.84-4.1 5.23L163.4-87.6c-.47 2.04-.13 4.08 1 5.9.13.23.24.34.47.57l27.28 35c1.48 1.94 3.52 2.97 5.9 2.97h43.9c2.38 0 4.42-1.03 5.9-2.96l27.28-35c1.48-1.94 2.05-4.2 1.48-6.6l-9.77-43.65c-.45-2.4-1.93-4.2-4.1-5.23l-39.43-19.44c-1.26-.56-2.4-.9-3.64-.8z" stroke="#000" stroke-opacity="0" stroke-width="3.83" fill="#326ce5"/><path d="M219.64-160c-1.2.12-2.16.36-3.12.84l-41.64 20.52c-2.28 1.08-3.84 3-4.32 5.52l-10.32 46.2c-.48 2.16-.12 4.32 1.08 6.24.12.24.24.36.48.6l28.8 36.96c1.56 2.04 3.72 3.12 6.24 3.12h46.32c2.52 0 4.68-1.08 6.24-3.12l28.8-36.96c1.56-2.04 2.16-4.44 1.56-6.84l-10.32-46.2c-.48-2.52-2.04-4.44-4.32-5.52l-41.64-20.52c-1.32-.6-2.52-.96-3.84-.84zm0 3.24c1.32-.12 2.4.12 3.6.72l39.6 19.44c2.04 1.08 3.48 2.88 4.08 5.28l9.72 43.68c.48 2.4 0 4.56-1.44 6.48l-27.36 35.04c-1.44 1.92-3.48 3-5.88 3h-43.92c-2.4 0-4.44-1.08-5.88-3L164.8-81.16c-.12-.12-.24-.36-.36-.6-1.2-1.8-1.56-3.72-1.08-5.88l9.72-43.68c.6-2.4 1.92-4.2 4.08-5.28l39.6-19.44c.96-.48 1.8-.72 2.88-.84z" stroke="#000" stroke-opacity="0" stroke-width="3.83" fill="#fff"/><path d="M207-61.24c.35-.67.78-1.16 1.27-1.47.5-.32 1.14-.5 1.9-.5 1.08 0 1.87.3 2.38.85.5.55.76 1.47.76 2.76v6.83h-1.64v-6.48c0-.72-.07-1.25-.2-1.6-.13-.35-.34-.62-.63-.77-.3-.17-.7-.25-1.22-.25-.77 0-1.4.28-1.86.82-.46.57-.7 1.3-.7 2.25v6.03h-1.65V-66.8h1.64v3.65c0 .4 0 .8-.03 1.2 0 .4-.02.64-.03.7zM224.2-57.93c0 3.56-1.22 5.35-3.65 5.35-1.53 0-2.56-.6-3.08-1.8h-.04c.02.07.03.6.03 1.63v4h-1.65v-12.17c0-1.05 0-1.74-.05-2.1h1.6l.03.3.04.7.02.66h.04c.3-.62.68-1.1 1.16-1.37.48-.3 1.12-.45 1.9-.45 1.23 0 2.15.42 2.74 1.27.6.82.92 2.15.92 3.97zm-1.73.03c0-1.42-.2-2.44-.56-3.05-.37-.6-.96-.92-1.77-.92-.66 0-1.17.15-1.54.43-.38.28-.66.73-.85 1.33-.2.58-.3 1.38-.3 2.33 0 1.35.22 2.33.63 2.97.42.63 1.1.95 2.03.95.83 0 1.42-.3 1.8-.92.37-.62.57-1.66.57-3.13zM228.8-52.6c-1 0-1.76-.26-2.26-.8-.5-.54-.75-1.3-.75-2.23 0-1.06.33-1.87 1-2.44.68-.56 1.77-.87 3.27-.9l2.23-.04v-.57c0-.83-.18-1.42-.5-1.78-.36-.37-.9-.55-1.63-.55-.74 0-1.28.13-1.6.4-.35.25-.55.66-.62 1.23l-1.72-.16c.28-1.84 1.6-2.76 3.98-2.76 1.25 0 2.2.3 2.82.9.63.58.95 1.43.95 2.55v4.4c0 .5.06.9.2 1.15.1.25.37.37.72.37.15 0 .33-.02.53-.06v1.07c-.4.1-.84.15-1.27.15-.62 0-1.06-.16-1.34-.5-.27-.33-.44-.85-.47-1.55h-.05c-.43.77-.92 1.34-1.48 1.67-.56.3-1.23.47-2.03.47zm.36-1.26c.6 0 1.14-.15 1.6-.42.5-.3.85-.68 1.12-1.17.28-.5.42-1 .42-1.53v-.84l-1.8.04c-.8 0-1.38.1-1.78.24-.4.15-.7.38-.92.7-.2.32-.3.73-.3 1.24 0 .55.13.98.42 1.3.3.28.7.44 1.24.44z" stroke="#000" stroke-opacity="0" fill="#fff"/><path d="M173.28-104.7l13.74-13.72v6.86h5.04v-20.57h55.88v20.57H253v-6.86l13.72 13.7L252.98-91v-6.85h-5.04v20.57h-55.88v-20.57h-5.04V-91z" stroke="#000" stroke-opacity="0" stroke-width="3.4" fill="#fff"/><path d="M198.62-119.64L220-125.8l21.38 6.16-21.38 6.18zM198.62-117.27v22.66l19.92 11 .1-27.74zM241.38-117.27v22.66l-19.92 11-.1-27.74z" stroke="#000" stroke-opacity="0" stroke-width="3.4" fill="#326ce5"/><g><use xlink:href="#J" transform="matrix(1,0,0,1,130,-31) translate(-40.62608506944446 21.52777777777778)"/></g><path d="M-239.5-367.66H917.16a6 6 0 0 1 6 6 6 6 0 0 0 6 6h17.62" stroke="#3a414a" fill="none"/><path d="M-239.5-367.2h-.5v-.94h.5z" stroke="#3a414a" stroke-width=".05" fill="#3a414a"/><path d="M961.54-355.66l-14.26 4.64v-9.28z" stroke="#3a414a" fill="#3a414a"/><path d="M-241.9 182.06h33.5a6 6 0 0 1 6 6V226a6 6 0 0 0 6 6H946.78" stroke="#3a414a" fill="none"/><path d="M-241.9 182.54h-.5v-.95h.5z" stroke="#3a414a" stroke-width=".05" fill="#3a414a"/><path d="M961.54 232l-14.26 4.64v-9.27z" stroke="#3a414a" fill="#3a414a"/><defs><path d="M52 0l541-1490h220L1361 0h-200l-149-416H398L254 0H52zm404-582h497c-103-290-145-390-251-756-108 377-145 460-246 756" id="K"/><path d="M458 0L52-1490h194c108 439 233 855 324 1313 92-459 221-873 331-1313h216c110 438 234 854 330 1307 92-455 216-869 323-1307h196L1558 0h-221l-256-944c-26-95-50-200-73-331-22 122-44 223-73 331L680 0H458" id="L"/><path d="M657 26c-323 0-524-166-541-416h195c15 169 171 246 346 246 202 0 356-106 356-265 5-203-294-238-475-293-239-73-380-191-380-389 0-252 224-419 512-419 294 0 499 171 508 396H992c-17-145-151-228-328-228-193 0-321 102-321 242 0 156 175 211 284 241l149 41c160 44 422 134 422 412 0 244-197 432-541 432" id="M"/><g id="a"><use transform="matrix(0.008173828125000001,0,0,0.008173828125000001,0,0)" xlink:href="#K"/><use transform="matrix(0.008173828125000001,0,0,0.008173828125000001,10.601455078125001,0)" xlink:href="#L"/><use transform="matrix(0.008173828125000001,0,0,0.008173828125000001,27.096240234375003,0)" xlink:href="#M"/></g><path d="M783 20c-382 0-661-292-661-764 0-473 279-766 661-766 302 0 548 182 601 489h-190c-42-204-217-313-411-313-268 0-476 208-476 590 0 381 209 588 476 588 195 0 369-110 411-313h190c-52 303-296 489-601 489" id="N"/><path d="M338-1490V0H158v-1490h180" id="O"/><path d="M613 24c-304 0-509-231-509-576 0-350 205-580 509-580 305 0 511 230 511 580 0 345-206 576-511 576zm0-161c226 0 329-195 329-415 0-222-103-419-329-419-223 0-326 196-326 419 0 220 103 415 326 415" id="P"/><path d="M537 14c-226 0-379-139-379-422v-710h180v695c0 172 97 275 253 275 160 0 281-109 281-300v-670h181V0H879v-209C806-46 684 14 537 14" id="Q"/><path d="M577 24c-279 0-473-224-473-580 0-354 195-576 474-576 218 0 287 134 324 193h14v-551h180V0H922v-173h-20C865-111 790 24 577 24zm27-161c203 0 314-172 314-421 0-247-108-413-314-413-212 0-317 181-317 413 0 235 108 421 317 421" id="R"/><g id="b"><use transform="matrix(0.008173828125000001,0,0,0.008173828125000001,0,0)" xlink:href="#N"/><use transform="matrix(0.008173828125000001,0,0,0.008173828125000001,12.228046875000002,0)" xlink:href="#O"/><use transform="matrix(0.008173828125000001,0,0,0.008173828125000001,16.282265625,0)" xlink:href="#P"/><use transform="matrix(0.008173828125000001,0,0,0.008173828125000001,26.3197265625,0)" xlink:href="#Q"/><use transform="matrix(0.008173828125000001,0,0,0.008173828125000001,36.218232421875,0)" xlink:href="#R"/></g><path d="M600 0L52-1490h200c166 485 304 806 458 1336 156-533 285-846 449-1336h202L819 0H600" id="S"/><path d="M158 0v-1118h180V0H158zm91-1301c-68 0-125-53-125-119s57-119 125-119c69 0 126 53 126 119s-57 119-126 119" id="T"/><path d="M158 0v-1118h174v172h12c41-113 157-188 290-188 26 0 70 2 91 3v181c-11-2-60-10-108-10-161 0-279 109-279 260V0H158" id="U"/><path d="M598-1118v154H368v674c0 100 37 144 132 144 23 0 62-6 92-12L629-6c-37 13-88 20-134 20-193 0-307-107-307-290v-688H20v-154h168v-266h180v266h230" id="V"/><path d="M471 26C259 26 90-98 90-318c0-256 228-303 435-329 202-27 287-16 287-108 0-139-79-219-234-219-161 0-248 86-283 164l-173-57c86-203 278-265 451-265 150 0 419 46 419 395V0H815v-152h-12C765-73 660 26 471 26zm31-159c199 0 310-134 310-271v-155c-30 35-226 55-295 64-131 17-246 59-246 186 0 116 97 176 231 176" id="W"/><g id="c"><use transform="matrix(0.008173828125000001,0,0,0.008173828125000001,0,0)" xlink:href="#S"/><use transform="matrix(0.008173828125000001,0,0,0.008173828125000001,11.549619140625001,0)" xlink:href="#T"/><use transform="matrix(0.008173828125000001,0,0,0.008173828125000001,15.603837890625002,0)" xlink:href="#U"/><use transform="matrix(0.008173828125000001,0,0,0.008173828125000001,22.167421875000002,0)" xlink:href="#V"/><use transform="matrix(0.008173828125000001,0,0,0.008173828125000001,27.643886718750004,0)" xlink:href="#Q"/><use transform="matrix(0.008173828125000001,0,0,0.008173828125000001,37.542392578125,0)" xlink:href="#W"/><use transform="matrix(0.008173828125000001,0,0,0.008173828125000001,46.942294921875,0)" xlink:href="#O"/></g><path d="M158 418v-1536h174v179h20c37-59 106-193 324-193 279 0 474 222 474 576 0 356-194 580-473 580-213 0-288-135-325-197h-14v591H158zm492-555c209 0 317-186 317-421 0-232-105-413-317-413-206 0-314 166-314 413 0 249 111 421 314 421" id="X"/><path d="M481 0L54-1118h197c107 314 236 620 325 951 87-331 217-637 324-951h197L670 0H481" id="Y"/><path d="M628 24c-324 0-524-230-524-574 0-343 198-582 503-582 237 0 487 146 487 559v75H286c9 234 145 362 343 362 132 0 231-58 273-172l174 48C1024-91 857 24 628 24zM287-650h624c-17-190-120-322-304-322-192 0-309 151-320 322" id="Z"/><g id="d"><use transform="matrix(0.008173828125000001,0,0,0.008173828125000001,0,0)" xlink:href="#X"/><use transform="matrix(0.008173828125000001,0,0,0.008173828125000001,10.249980468750001,0)" xlink:href="#U"/><use transform="matrix(0.008173828125000001,0,0,0.008173828125000001,16.813564453125004,0)" xlink:href="#T"/><use transform="matrix(0.008173828125000001,0,0,0.008173828125000001,20.867783203125004,0)" xlink:href="#Y"/><use transform="matrix(0.008173828125000001,0,0,0.008173828125000001,30.194121093750006,0)" xlink:href="#W"/><use transform="matrix(0.008173828125000001,0,0,0.008173828125000001,39.594023437500006,0)" xlink:href="#V"/><use transform="matrix(0.008173828125000001,0,0,0.008173828125000001,44.907011718750006,0)" xlink:href="#Z"/></g><path d="M613 24c-304 0-509-231-509-576 0-350 205-580 509-580 216 0 392 114 453 309l-173 49c-33-115-133-197-280-197-223 0-326 196-326 419 0 220 103 415 326 415 150 0 252-85 285-206l172 49C1010-95 832 24 613 24" id="aa"/><g id="e"><use transform="matrix(0.008173828125000001,0,0,0.008173828125000001,0,0)" xlink:href="#aa"/><use transform="matrix(0.008173828125000001,0,0,0.008173828125000001,9.563378906250001,0)" xlink:href="#O"/><use transform="matrix(0.008173828125000001,0,0,0.008173828125000001,13.617597656250002,0)" xlink:href="#P"/><use transform="matrix(0.008173828125000001,0,0,0.008173828125000001,23.655058593750002,0)" xlink:href="#Q"/><use transform="matrix(0.008173828125000001,0,0,0.008173828125000001,33.553564453125006,0)" xlink:href="#R"/></g><path d="M218-607c0-325 108-727 258-974h175c-155 315-250 682-250 974 0 265 78 531 250 886H476C306-10 218-315 218-607" id="ab"/><path d="M180 0v-1490h510c348 0 508 209 508 474 0 266-160 477-507 477H370V0H180zm190-706h312c236 0 327-133 327-310 0-176-91-307-329-307H370v617" id="ac"/><path d="M96 279C273-86 346-350 346-607c0-292-95-659-250-974h175c150 246 258 650 258 974 0 297-91 602-258 886H96" id="ad"/><g id="f"><use transform="matrix(0.008173828125000001,0,0,0.008173828125000001,0,0)" xlink:href="#ab"/><use transform="matrix(0.008173828125000001,0,0,0.008173828125000001,6.105849609375,0)" xlink:href="#S"/><use transform="matrix(0.008173828125000001,0,0,0.008173828125000001,17.65546875,0)" xlink:href="#ac"/><use transform="matrix(0.008173828125000001,0,0,0.008173828125000001,28.346835937500003,0)" xlink:href="#N"/><use transform="matrix(0.008173828125000001,0,0,0.008173828125000001,40.57488281250001,0)" xlink:href="#ad"/></g><path d="M677 24c-213 0-288-135-325-197h-20V0H158v-1490h180v551h14c37-59 106-193 324-193 279 0 474 222 474 576 0 356-194 580-473 580zm-27-161c209 0 317-186 317-421 0-232-105-413-317-413-206 0-314 166-314 413 0 249 111 421 314 421" id="ae"/><path d="M140 405l46-156c120 36 205 19 263-150l32-93L54-1118h197c107 313 237 620 324 950 87-331 219-637 326-950h196L606 167c-68 178-176 259-334 259-64 0-113-12-132-21" id="af"/><g id="g"><use transform="matrix(0.0087890625,0,0,0.0087890625,0,0)" xlink:href="#K"/><use transform="matrix(0.0087890625,0,0,0.0087890625,11.197265625,0)" xlink:href="#Y"/><use transform="matrix(0.0087890625,0,0,0.0087890625,21.2255859375,0)" xlink:href="#W"/><use transform="matrix(0.0087890625,0,0,0.0087890625,31.3330078125,0)" xlink:href="#T"/><use transform="matrix(0.0087890625,0,0,0.0087890625,35.6923828125,0)" xlink:href="#O"/><use transform="matrix(0.0087890625,0,0,0.0087890625,40.0517578125,0)" xlink:href="#W"/><use transform="matrix(0.0087890625,0,0,0.0087890625,50.1591796875,0)" xlink:href="#ae"/><use transform="matrix(0.0087890625,0,0,0.0087890625,61.1806640625,0)" xlink:href="#T"/><use transform="matrix(0.0087890625,0,0,0.0087890625,65.5400390625,0)" xlink:href="#O"/><use transform="matrix(0.0087890625,0,0,0.0087890625,69.8994140625,0)" xlink:href="#T"/><use transform="matrix(0.0087890625,0,0,0.0087890625,74.2587890625,0)" xlink:href="#V"/><use transform="matrix(0.0087890625,0,0,0.0087890625,80.4990234375,0)" xlink:href="#af"/></g><path d="M130 0v-134l666-991c45-67 96-135 147-202-269 9-546 3-821 5v-168h1036v136L502-379c-49 72-103 145-157 216 268-9 546-3 821-5V0H130" id="ag"/><path d="M338-670V0H158v-1118h173l1 207c72-158 192-221 342-221 226 0 378 139 378 422V0H872v-695c0-172-96-275-252-275-161 0-282 109-282 300" id="ah"/><g id="h"><use transform="matrix(0.0087890625,0,0,0.0087890625,0,0)" xlink:href="#ag"/><use transform="matrix(0.0087890625,0,0,0.0087890625,11.3203125,0)" xlink:href="#P"/><use transform="matrix(0.0087890625,0,0,0.0087890625,22.11328125,0)" xlink:href="#ah"/><use transform="matrix(0.0087890625,0,0,0.0087890625,32.748046875,0)" xlink:href="#Z"/></g><path d="M180 0v-1490h528c311 0 458 177 458 395 0 191-114 278-244 313v14c139 9 302 137 302 371 0 225-148 397-499 397H180zm190-168h350c232 0 321-102 321-231 0-149-120-277-311-277H370v508zm0-668h328c160 0 286-101 286-255 0-129-87-231-280-231H370v486" id="ai"/><use transform="matrix(0.0087890625,0,0,0.0087890625,0,0)" xlink:href="#ai" id="i"/><use transform="matrix(0.0087890625,0,0,0.0087890625,0,0)" xlink:href="#K" id="j"/><g id="k"><use transform="matrix(0.0087890625,0,0,0.0087890625,0,0)" xlink:href="#ac"/><use transform="matrix(0.0087890625,0,0,0.0087890625,11.49609375,0)" xlink:href="#U"/><use transform="matrix(0.0087890625,0,0,0.0087890625,18.5537109375,0)" xlink:href="#T"/><use transform="matrix(0.0087890625,0,0,0.0087890625,22.9130859375,0)" xlink:href="#Y"/><use transform="matrix(0.0087890625,0,0,0.0087890625,32.94140625,0)" xlink:href="#W"/><use transform="matrix(0.0087890625,0,0,0.0087890625,43.048828125,0)" xlink:href="#V"/><use transform="matrix(0.0087890625,0,0,0.0087890625,48.76171875,0)" xlink:href="#Z"/></g><path d="M538 24C308 24 148-78 108-271l171-41c32 123 123 178 257 178 156 0 256-77 256-169 0-77-54-128-164-154l-186-44c-203-48-300-148-300-305 0-192 176-326 414-326 230 0 351 112 402 269l-163 42c-31-80-94-158-238-158-133 0-233 69-233 162 0 83 57 129 188 160l169 40c203 48 298 149 298 302 0 196-179 339-441 339" id="aj"/><g id="l"><use transform="matrix(0.0087890625,0,0,0.0087890625,0,0)" xlink:href="#aj"/><use transform="matrix(0.0087890625,0,0,0.0087890625,9.5009765625,0)" xlink:href="#Q"/><use transform="matrix(0.0087890625,0,0,0.0087890625,20.14453125,0)" xlink:href="#ae"/><use transform="matrix(0.0087890625,0,0,0.0087890625,31.166015625,0)" xlink:href="#ah"/><use transform="matrix(0.0087890625,0,0,0.0087890625,41.80078125,0)" xlink:href="#Z"/><use transform="matrix(0.0087890625,0,0,0.0087890625,52.294921875,0)" xlink:href="#V"/></g><path d="M154 0v-137l495-537c165-179 249-281 249-418 0-156-121-253-280-253-170 0-278 110-278 278H158c0-264 200-443 465-443 266 0 455 183 455 416 0 161-73 288-336 568L416-179v12h687V0H154" id="ak"/><use transform="matrix(0.0087890625,0,0,0.0087890625,0,0)" xlink:href="#ak" id="m"/><path d="M653-1490V0H466v-1314h-10L96-1047v-204l324-239h233" id="al"/><use transform="matrix(0.0087890625,0,0,0.0087890625,0,0)" xlink:href="#al" id="n"/><path d="M180 0v-1490h908v168H370v486h669v168H370v500h727V0H180" id="am"/><g id="o"><use transform="matrix(0.010850694444444444,0,0,0.010850694444444444,0,0)" xlink:href="#am"/><use transform="matrix(0.010850694444444444,0,0,0.010850694444444444,13.35720486111111,0)" xlink:href="#N"/><use transform="matrix(0.010850694444444444,0,0,0.010850694444444444,29.58984375,0)" xlink:href="#ak"/></g><path d="M158 0v-1490h180v865h22l478-493h223L593-638 1096 0H865L456-523 338-412V0H158" id="an"/><g id="p"><use transform="matrix(0.010850694444444444,0,0,0.010850694444444444,0,0)" xlink:href="#L"/><use transform="matrix(0.010850694444444444,0,0,0.010850694444444444,21.14800347222222,0)" xlink:href="#U"/><use transform="matrix(0.010850694444444444,0,0,0.010850694444444444,29.144965277777775,0)" xlink:href="#P"/><use transform="matrix(0.010850694444444444,0,0,0.010850694444444444,42.46961805555556,0)" xlink:href="#an"/><use transform="matrix(0.010850694444444444,0,0,0.010850694444444444,54.16666666666667,0)" xlink:href="#Z"/><use transform="matrix(0.010850694444444444,0,0,0.010850694444444444,67.12239583333334,0)" xlink:href="#U"/></g><path d="M180 0v-1490h224l606 953c40 63 108 177 176 312-27-437-7-821-13-1265h190V0h-226C860-448 622-778 356-1262c27 476 11 792 15 1262H180" id="ao"/><g id="q"><use transform="matrix(0.010850694444444444,0,0,0.010850694444444444,0,0)" xlink:href="#ao"/><use transform="matrix(0.010850694444444444,0,0,0.010850694444444444,16.74262152777778,0)" xlink:href="#P"/><use transform="matrix(0.010850694444444444,0,0,0.010850694444444444,30.06727430555556,0)" xlink:href="#R"/><use transform="matrix(0.010850694444444444,0,0,0.010850694444444444,43.674045138888886,0)" xlink:href="#Z"/></g><g id="r"><use transform="matrix(0.008173828125000001,0,0,0.008173828125000001,0,0)" xlink:href="#ac"/><use transform="matrix(0.008173828125000001,0,0,0.008173828125000001,10.691367187500001,0)" xlink:href="#Q"/><use transform="matrix(0.008173828125000001,0,0,0.008173828125000001,20.589873046875002,0)" xlink:href="#ae"/><use transform="matrix(0.008173828125000001,0,0,0.008173828125000001,30.839853515625002,0)" xlink:href="#O"/><use transform="matrix(0.008173828125000001,0,0,0.008173828125000001,34.894072265625,0)" xlink:href="#T"/><use transform="matrix(0.008173828125000001,0,0,0.008173828125000001,38.948291015625,0)" xlink:href="#aa"/></g><g id="s"><use transform="matrix(0.008173828125000001,0,0,0.008173828125000001,0,0)" xlink:href="#aj"/><use transform="matrix(0.008173828125000001,0,0,0.008173828125000001,8.835908203125001,0)" xlink:href="#Q"/><use transform="matrix(0.008173828125000001,0,0,0.008173828125000001,18.7344140625,0)" xlink:href="#ae"/><use transform="matrix(0.008173828125000001,0,0,0.008173828125000001,28.984394531250004,0)" xlink:href="#ah"/><use transform="matrix(0.008173828125000001,0,0,0.008173828125000001,38.8747265625,0)" xlink:href="#Z"/><use transform="matrix(0.008173828125000001,0,0,0.008173828125000001,48.63427734375,0)" xlink:href="#V"/></g><use transform="matrix(0.008173828125000001,0,0,0.008173828125000001,0,0)" xlink:href="#ak" id="t"/><use transform="matrix(0.008173828125000001,0,0,0.008173828125000001,0,0)" xlink:href="#al" id="u"/><path d="M180 0v-1490h190c0 262 1 526-3 784 217-279 467-523 702-784h249L716-845 1319 0h-225L585-716 370-489V0H180" id="ap"/><g id="v"><use transform="matrix(0.008680555555555556,0,0,0.008680555555555556,0,0)" xlink:href="#am"/><use transform="matrix(0.008680555555555556,0,0,0.008680555555555556,10.68576388888889,0)" xlink:href="#ap"/><use transform="matrix(0.008680555555555556,0,0,0.008680555555555556,22.456597222222225,0)" xlink:href="#M"/></g><g id="w"><use transform="matrix(0.008680555555555556,0,0,0.008680555555555556,0,0)" xlink:href="#N"/><use transform="matrix(0.008680555555555556,0,0,0.008680555555555556,12.986111111111112,0)" xlink:href="#P"/><use transform="matrix(0.008680555555555556,0,0,0.008680555555555556,23.645833333333336,0)" xlink:href="#ah"/><use transform="matrix(0.008680555555555556,0,0,0.008680555555555556,34.14930555555556,0)" xlink:href="#V"/><use transform="matrix(0.008680555555555556,0,0,0.008680555555555556,39.96527777777778,0)" xlink:href="#U"/><use transform="matrix(0.008680555555555556,0,0,0.008680555555555556,46.362847222222236,0)" xlink:href="#P"/><use transform="matrix(0.008680555555555556,0,0,0.008680555555555556,57.02256944444445,0)" xlink:href="#O"/></g><g id="x"><use transform="matrix(0.008680555555555556,0,0,0.008680555555555556,0,0)" xlink:href="#ac"/><use transform="matrix(0.008680555555555556,0,0,0.008680555555555556,11.354166666666668,0)" xlink:href="#W"/><use transform="matrix(0.008680555555555556,0,0,0.008680555555555556,21.336805555555557,0)" xlink:href="#ah"/><use transform="matrix(0.008680555555555556,0,0,0.008680555555555556,31.84027777777778,0)" xlink:href="#Z"/><use transform="matrix(0.008680555555555556,0,0,0.008680555555555556,42.204861111111114,0)" xlink:href="#O"/></g><path d="M180 0v-1490h270l367 940c28 72 75 218 110 339 35-117 81-264 110-339l362-940h271V0h-187c2-448-5-837 7-1287-157 497-311 829-483 1287H842C666-458 514-784 354-1284c12 438 5 843 7 1284H180" id="aq"/><g id="y"><use transform="matrix(0.010850694444444444,0,0,0.010850694444444444,0,0)" xlink:href="#aq"/><use transform="matrix(0.010850694444444444,0,0,0.010850694444444444,20.07378472222222,0)" xlink:href="#W"/><use transform="matrix(0.010850694444444444,0,0,0.010850694444444444,32.55208333333333,0)" xlink:href="#aj"/><use transform="matrix(0.010850694444444444,0,0,0.010850694444444444,44.28168402777777,0)" xlink:href="#V"/><use transform="matrix(0.010850694444444444,0,0,0.010850694444444444,51.334635416666664,0)" xlink:href="#Z"/><use transform="matrix(0.010850694444444444,0,0,0.010850694444444444,64.29036458333333,0)" xlink:href="#U"/></g><g id="z"><use transform="matrix(0.010850694444444444,0,0,0.010850694444444444,0,0)" xlink:href="#ac"/><use transform="matrix(0.010850694444444444,0,0,0.010850694444444444,14.073350694444445,0)" xlink:href="#P"/><use transform="matrix(0.010850694444444444,0,0,0.010850694444444444,27.39800347222222,0)" xlink:href="#R"/></g><path d="M180 0v-1490h190v1322h690V0H180" id="ar"/><g id="A"><use transform="matrix(0.010850694444444444,0,0,0.010850694444444444,0,0)" xlink:href="#ar"/><use transform="matrix(0.010850694444444444,0,0,0.010850694444444444,12.565104166666666,0)" xlink:href="#P"/><use transform="matrix(0.010850694444444444,0,0,0.010850694444444444,26.106770833333332,0)" xlink:href="#W"/><use transform="matrix(0.010850694444444444,0,0,0.010850694444444444,38.58506944444444,0)" xlink:href="#R"/></g><g id="B"><use transform="matrix(0.010850694444444444,0,0,0.010850694444444444,0,0)" xlink:href="#ai"/><use transform="matrix(0.010850694444444444,0,0,0.010850694444444444,14.539930555555555,0)" xlink:href="#O"/><use transform="matrix(0.010850694444444444,0,0,0.010850694444444444,19.921875,0)" xlink:href="#W"/><use transform="matrix(0.010850694444444444,0,0,0.010850694444444444,32.400173611111114,0)" xlink:href="#ah"/><use transform="matrix(0.010850694444444444,0,0,0.010850694444444444,45.5295138888889,0)" xlink:href="#aa"/><use transform="matrix(0.010850694444444444,0,0,0.010850694444444444,58.2248263888889,0)" xlink:href="#Z"/><use transform="matrix(0.010850694444444444,0,0,0.010850694444444444,71.18055555555556,0)" xlink:href="#U"/></g><g id="C"><use transform="matrix(0.010850694444444444,0,0,0.010850694444444444,0,0)" xlink:href="#K"/><use transform="matrix(0.010850694444444444,0,0,0.010850694444444444,14.073350694444445,0)" xlink:href="#L"/><use transform="matrix(0.010850694444444444,0,0,0.010850694444444444,35.970052083333336,0)" xlink:href="#M"/></g><g id="D"><use transform="matrix(0.010850694444444444,0,0,0.010850694444444444,0,0)" xlink:href="#K"/><use transform="matrix(0.010850694444444444,0,0,0.010850694444444444,15.33203125,0)" xlink:href="#Q"/><use transform="matrix(0.010850694444444444,0,0,0.010850694444444444,28.47222222222222,0)" xlink:href="#V"/><use transform="matrix(0.010850694444444444,0,0,0.010850694444444444,35.52517361111111,0)" xlink:href="#P"/></g><path d="M611 442c-248 0-391-105-460-228l146-94c47 65 117 165 314 165 178 0 307-82 307-266v-224h-17C863-141 792-18 576-18c-268 0-472-195-472-546 0-346 197-568 476-568 216 0 288 133 326 193h17v-179h175V29c0 289-215 413-487 413zm-5-620c203 0 314-146 314-390 0-237-108-403-314-403-213 0-319 180-319 403 0 230 109 390 319 390" id="as"/><g id="E"><use transform="matrix(0.010850694444444444,0,0,0.010850694444444444,0,0)" xlink:href="#M"/><use transform="matrix(0.010850694444444444,0,0,0.010850694444444444,14.2578125,0)" xlink:href="#aa"/><use transform="matrix(0.010850694444444444,0,0,0.010850694444444444,27.17013888888889,0)" xlink:href="#W"/><use transform="matrix(0.010850694444444444,0,0,0.010850694444444444,39.6484375,0)" xlink:href="#O"/><use transform="matrix(0.010850694444444444,0,0,0.010850694444444444,45.03038194444444,0)" xlink:href="#T"/><use transform="matrix(0.010850694444444444,0,0,0.010850694444444444,50.412326388888886,0)" xlink:href="#ah"/><use transform="matrix(0.010850694444444444,0,0,0.010850694444444444,63.541666666666664,0)" xlink:href="#as"/></g><g id="F"><use transform="matrix(0.010850694444444444,0,0,0.010850694444444444,0,0)" xlink:href="#am"/><use transform="matrix(0.010850694444444444,0,0,0.010850694444444444,13.35720486111111,0)" xlink:href="#O"/><use transform="matrix(0.010850694444444444,0,0,0.010850694444444444,18.739149305555557,0)" xlink:href="#W"/><use transform="matrix(0.010850694444444444,0,0,0.010850694444444444,31.217447916666664,0)" xlink:href="#aj"/><use transform="matrix(0.010850694444444444,0,0,0.010850694444444444,42.947048611111114,0)" xlink:href="#V"/><use transform="matrix(0.010850694444444444,0,0,0.010850694444444444,50.2170138888889,0)" xlink:href="#T"/><use transform="matrix(0.010850694444444444,0,0,0.010850694444444444,55.59895833333333,0)" xlink:href="#aa"/></g><g id="G"><use transform="matrix(0.010850694444444444,0,0,0.010850694444444444,0,0)" xlink:href="#ar"/><use transform="matrix(0.010850694444444444,0,0,0.010850694444444444,12.565104166666666,0)" xlink:href="#P"/><use transform="matrix(0.010850694444444444,0,0,0.010850694444444444,26.106770833333332,0)" xlink:href="#W"/><use transform="matrix(0.010850694444444444,0,0,0.010850694444444444,38.58506944444444,0)" xlink:href="#R"/></g><g id="H"><use transform="matrix(0.010850694444444444,0,0,0.010850694444444444,0,0)" xlink:href="#ai"/><use transform="matrix(0.010850694444444444,0,0,0.010850694444444444,14.539930555555555,0)" xlink:href="#W"/><use transform="matrix(0.010850694444444444,0,0,0.010850694444444444,27.018229166666664,0)" xlink:href="#O"/><use transform="matrix(0.010850694444444444,0,0,0.010850694444444444,32.40017361111111,0)" xlink:href="#W"/><use transform="matrix(0.010850694444444444,0,0,0.010850694444444444,44.87847222222221,0)" xlink:href="#ah"/><use transform="matrix(0.010850694444444444,0,0,0.010850694444444444,58.007812499999986,0)" xlink:href="#aa"/><use transform="matrix(0.010850694444444444,0,0,0.010850694444444444,70.703125,0)" xlink:href="#T"/><use transform="matrix(0.010850694444444444,0,0,0.010850694444444444,76.08506944444444,0)" xlink:href="#ah"/><use transform="matrix(0.010850694444444444,0,0,0.010850694444444444,89.21440972222221,0)" xlink:href="#as"/></g><g id="I"><use transform="matrix(0.010850694444444444,0,0,0.010850694444444444,0,0)" xlink:href="#ai"/><use transform="matrix(0.010850694444444444,0,0,0.010850694444444444,14.539930555555555,0)" xlink:href="#W"/><use transform="matrix(0.010850694444444444,0,0,0.010850694444444444,27.018229166666664,0)" xlink:href="#O"/><use transform="matrix(0.010850694444444444,0,0,0.010850694444444444,32.40017361111111,0)" xlink:href="#ah"/><use transform="matrix(0.010850694444444444,0,0,0.010850694444444444,45.529513888888886,0)" xlink:href="#aa"/><use transform="matrix(0.010850694444444444,0,0,0.010850694444444444,58.224826388888886,0)" xlink:href="#Z"/><use transform="matrix(0.010850694444444444,0,0,0.010850694444444444,71.18055555555556,0)" xlink:href="#U"/></g><path d="M180 0v-1490h190v644h782v-644h190V0h-190v-678H370V0H180" id="at"/><path d="M126 0v-134l627-806v-11H146v-167h839v143L376-178v11h629V0H126" id="au"/><g id="J"><use transform="matrix(0.010850694444444444,0,0,0.010850694444444444,0,0)" xlink:href="#at"/><use transform="matrix(0.010850694444444444,0,0,0.010850694444444444,16.514756944444443,0)" xlink:href="#P"/><use transform="matrix(0.010850694444444444,0,0,0.010850694444444444,29.83940972222222,0)" xlink:href="#U"/><use transform="matrix(0.010850694444444444,0,0,0.010850694444444444,38.55251736111111,0)" xlink:href="#T"/><use transform="matrix(0.010850694444444444,0,0,0.010850694444444444,43.93446180555555,0)" xlink:href="#au"/><use transform="matrix(0.010850694444444444,0,0,0.010850694444444444,55.88107638888888,0)" xlink:href="#P"/><use transform="matrix(0.010850694444444444,0,0,0.010850694444444444,69.20572916666666,0)" xlink:href="#ah"/><use transform="matrix(0.010850694444444444,0,0,0.010850694444444444,82.33506944444443,0)" xlink:href="#V"/><use transform="matrix(0.010850694444444444,0,0,0.010850694444444444,89.71354166666664,0)" xlink:href="#W"/><use transform="matrix(0.010850694444444444,0,0,0.010850694444444444,102.19184027777776,0)" xlink:href="#O"/><use transform="matrix(0.010850694444444444,0,0,0.010850694444444444,107.5737847222222,0)" xlink:href="#ac"/><use transform="matrix(0.010850694444444444,0,0,0.010850694444444444,121.64713541666664,0)" xlink:href="#P"/><use transform="matrix(0.010850694444444444,0,0,0.010850694444444444,134.97178819444443,0)" xlink:href="#R"/><use transform="matrix(0.010850694444444444,0,0,0.010850694444444444,148.57855902777777,0)" xlink:href="#K"/><use transform="matrix(0.010850694444444444,0,0,0.010850694444444444,163.91059027777777,0)" xlink:href="#Q"/><use transform="matrix(0.010850694444444444,0,0,0.010850694444444444,177.05078125,0)" xlink:href="#V"/><use transform="matrix(0.010850694444444444,0,0,0.010850694444444444,184.10373263888889,0)" xlink:href="#P"/><use transform="matrix(0.010850694444444444,0,0,0.010850694444444444,197.42838541666666,0)" xlink:href="#aj"/><use transform="matrix(0.010850694444444444,0,0,0.010850694444444444,209.15798611111111,0)" xlink:href="#aa"/><use transform="matrix(0.010850694444444444,0,0,0.010850694444444444,222.0703125,0)" xlink:href="#W"/><use transform="matrix(0.010850694444444444,0,0,0.010850694444444444,234.54861111111111,0)" xlink:href="#O"/><use transform="matrix(0.010850694444444444,0,0,0.010850694444444444,239.9305555555556,0)" xlink:href="#Z"/><use transform="matrix(0.010850694444444444,0,0,0.010850694444444444,252.8862847222222,0)" xlink:href="#U"/></g></defs></g></svg>